<svg width="210" height="131" viewBox="0 0 210 131" fill="none" xmlns="http://www.w3.org/2000/svg">
<path fill-rule="evenodd" clip-rule="evenodd" d="M135.073 83.9195C135.673 78.3693 137.773 73.4192 140.323 69.5191C142.123 66.669 147.223 60.9688 150.373 60.0687C151.873 62.1688 158.324 74.3192 160.274 77.6193C161.174 79.2694 162.974 82.1195 163.574 83.9195H135.073ZM61.8704 62.0188C73.5708 70.1191 80.171 90.3697 68.9206 106.42C67.5706 108.22 66.6705 109.12 65.3205 110.77C63.8204 112.571 63.0704 113.021 61.1203 114.521C33.9694 133.871 -3.08185 105.22 12.6687 72.8192C22.719 52.2685 50.02 53.3185 54.9701 58.2687C54.2201 60.0687 47.7699 71.3191 46.4198 73.7192C43.4197 78.8194 37.1195 87.3697 42.2197 89.6197C45.9698 91.2698 47.4699 87.3696 48.8199 84.9696C50.92 80.9194 60.8203 62.9188 61.8704 62.0188ZM157.424 56.7686C158.324 59.6187 171.824 82.1195 173.474 86.1696C176.474 93.3699 164.774 91.5698 157.874 91.5698C150.223 91.5698 142.573 91.5698 134.923 91.5698C137.773 120.221 175.874 132.071 194.325 106.72C206.475 89.9197 199.275 65.1689 179.324 57.3686C174.224 55.1185 162.674 53.6185 157.424 56.7686ZM76.2709 35.4679L95.6215 69.069C98.7716 74.9192 102.072 80.1694 105.222 86.0196C107.472 90.2198 107.322 91.5698 113.172 91.5698C116.772 91.5698 122.322 91.2698 125.773 91.7198C127.273 97.87 127.273 100.57 129.823 105.97C131.923 110.47 136.423 116.321 139.573 119.021C153.524 130.871 174.224 133.421 189.825 123.071C227.476 97.87 205.425 41.0181 161.924 46.5683C158.474 47.0183 155.624 48.2183 152.773 48.6683L144.673 34.2678C143.473 32.0178 144.673 31.1177 147.073 26.6176C147.973 24.9675 150.223 20.3174 151.573 19.4173C155.324 19.4173 165.674 20.4674 167.624 18.2173C169.274 16.4172 168.674 13.4171 166.574 12.3671C164.774 11.4671 142.873 11.9171 140.173 11.9171C137.323 12.0671 135.373 13.4171 135.973 16.5672C136.573 19.5673 138.973 19.2673 142.273 19.4173L139.123 25.4175H82.2711L92.1714 7.56693C97.7216 7.41692 103.272 7.56693 108.672 7.56693C116.022 7.56693 115.122 0.216674 109.572 0.066669C104.022 -0.0833362 98.4716 0.066669 92.9214 0.066669C86.3212 0.066669 87.6713 0.36667 83.6211 7.41691C79.421 14.6172 75.8208 21.6674 71.6207 28.7176C67.4206 35.7679 63.6704 43.2681 59.4703 50.3184C52.7201 47.9183 49.2699 46.2682 40.8697 46.4182C33.9694 46.5682 28.1192 48.2183 22.719 50.9184C13.5687 55.5686 5.46845 64.2689 1.86832 75.5193C-3.68187 93.3699 3.51838 112.721 18.3689 122.771C56.9202 148.722 104.022 99.8201 74.0208 62.0188C70.8707 57.9687 67.8706 56.1686 65.7705 54.0685L76.2709 35.4679ZM116.022 84.0695C130.423 83.9195 123.822 86.4696 128.323 73.5692C130.273 68.169 134.473 61.4188 138.373 57.8186C139.723 56.6186 144.073 53.0185 145.873 52.4184C145.273 50.4684 140.623 41.7681 139.423 40.718C137.323 43.7181 130.123 57.6686 127.423 62.3188C126.073 65.0189 116.322 82.5695 116.022 84.0695ZM108.972 77.0193L110.172 78.5194L135.373 32.7678H84.0711C84.2211 33.6678 105.522 71.3191 108.972 77.0193Z" fill="#00B7DE"/>
</svg>
