<svg width="138" height="43" fill="none" xmlns="http://www.w3.org/2000/svg"><path d="M53.09 13.575H50v8.439h-1.003v-9.362h4.091l.002.923zm-.882 5.096c0-1.207.208-2.092.622-2.656a2.062 2.062 0 011.771-.848c.822 0 1.425.29 1.81.869.384.579.579 1.457.583 2.635 0 1.206-.21 2.093-.628 2.66a2.074 2.074 0 01-1.767.843c-.819 0-1.422-.29-1.81-.87-.387-.581-.58-1.459-.58-2.633zm1.002 0c-.002.358.023.715.075 1.07.04.286.12.564.24.827.098.215.248.402.436.543.187.132.412.2.64.192a1.131 1.131 0 001.045-.622c.231-.414.346-1.084.346-2.01a7.355 7.355 0 00-.072-1.063 3 3 0 00-.242-.837 1.394 1.394 0 00-.434-.54 1.066 1.066 0 00-.643-.195 1.13 1.13 0 00-1.035.628c-.227.419-.356 1.088-.356 2.007zm5.07-3.343h.678l.147.721h.052a1.655 1.655 0 011.551-.882 1.781 1.781 0 011.584.787c.35.528.527 1.39.527 2.583a6.1 6.1 0 01-.175 1.516c-.096.41-.264.799-.495 1.151-.196.301-.465.55-.78.721a2.13 2.13 0 01-1.023.25 3.124 3.124 0 01-.615-.048 1.812 1.812 0 01-.495-.195v2.755h-.957v-9.36zm.963 5.636c.125.107.267.192.42.254.2.07.411.1.622.092a1.258 1.258 0 001.131-.721c.276-.481.414-1.167.414-2.058a6.329 6.329 0 00-.075-1.018 2.735 2.735 0 00-.226-.78 1.332 1.332 0 00-.423-.519 1.002 1.002 0 00-.606-.18c-.651 0-1.07.398-1.257 1.19v3.74zm4.555-2.293c0-1.207.207-2.092.622-2.656a2.063 2.063 0 011.77-.848c.821 0 1.424.29 1.81.869.386.579.58 1.457.582 2.635 0 1.206-.21 2.093-.63 2.66a2.07 2.07 0 01-1.763.843c-.82 0-1.424-.29-1.81-.87-.386-.581-.58-1.459-.581-2.633zm1.002 0c-.002.358.023.715.075 1.07.038.286.119.565.24.827.096.215.245.402.434.543.187.132.413.2.642.192a1.13 1.13 0 001.043-.622c.233-.414.35-1.084.348-2.01a7.041 7.041 0 00-.075-1.063 2.939 2.939 0 00-.24-.837 1.394 1.394 0 00-.434-.54 1.07 1.07 0 00-.642-.195 1.132 1.132 0 00-1.036.63c-.237.42-.355 1.089-.355 2.007v-.002zm9.936 5.04h-.678l-.161-1.697h-3.958l-.174 1.696h-.656v-2.567h.63a4.44 4.44 0 00.227-.54c.118-.36.21-.726.274-1.098.09-.468.167-1.045.226-1.73a32.32 32.32 0 00.113-2.447h3.356v5.815h.79l.011 2.567zm-1.753-2.568v-4.947h-1.495c-.018.383-.043.803-.072 1.258-.03.454-.08.905-.14 1.357-.062.452-.14.88-.227 1.29a6.329 6.329 0 01-.307 1.042h2.241zm6.446.536a2.243 2.243 0 01-.762.373 3.259 3.259 0 01-.905.122 2.186 2.186 0 01-1.083-.248 1.92 1.92 0 01-.717-.708 3.544 3.544 0 01-.4-1.111 7.57 7.57 0 01-.127-1.436c0-1.143.203-2.012.608-2.608a1.983 1.983 0 011.744-.905c.304-.005.608.026.905.093.224.052.44.134.642.242l-.267.841a2.287 2.287 0 00-1.162-.307 1.186 1.186 0 00-1.09.635c-.245.423-.369 1.09-.369 2-.002.344.026.689.081 1.029.043.29.133.573.267.834.113.224.278.418.482.564.218.143.475.215.735.206a1.81 1.81 0 001.138-.4l.28.784zm2.527-2.673h-.496v3.008h-.96v-6.686h.96v3.022l.453-.188 1.633-2.834h1.029l-1.583 2.687-.466.452.574.536 1.71 3.022h-1.149l-1.705-3.02zm7.048-.844l.079-1.016h-.055l-.465 1.131-2.262 3.746h-.629v-6.695h.97v3.971l-.079.975h.054l.44-1.097 2.286-3.845h.629v6.686h-.962l-.006-3.856zm6.539 3.393a2.24 2.24 0 01-.817.452 3.39 3.39 0 01-1.043.16 2.275 2.275 0 01-1.09-.248 2.074 2.074 0 01-.762-.708 3.26 3.26 0 01-.441-1.104 6.836 6.836 0 01-.14-1.443c0-1.143.21-2.012.628-2.608a2.036 2.036 0 011.778-.905c.25 0 .5.032.742.093.25.066.478.195.663.376.217.222.38.493.475.789.132.428.193.875.178 1.323 0 .15-.006.314-.02.489-.011.174-.027.352-.045.54h-3.393c-.003.35.029.7.095 1.043.05.28.15.55.294.796.126.21.303.385.514.509.24.127.51.188.782.179.245 0 .489-.046.717-.134.201-.067.386-.176.54-.321l.345.722zm-.751-3.585c.018-.668-.076-1.159-.28-1.47a.955.955 0 00-.842-.469 1.17 1.17 0 00-.977.468c-.24.313-.383.803-.428 1.47h2.527zm8.319-1.778h-2.249v5.817h-.96v-6.681h4.17v6.686h-.961v-5.822zm2.54-.869h.678l.149.722h.068a1.66 1.66 0 011.552-.882 1.773 1.773 0 011.583.787c.353.527.529 1.389.529 2.583.006.51-.052 1.02-.174 1.515-.097.41-.264.8-.495 1.152-.197.3-.466.549-.783.721a2.123 2.123 0 01-1.022.249 3.118 3.118 0 01-.613-.048 1.782 1.782 0 01-.495-.194v2.755h-.964l-.013-9.36zm.968 5.641c.125.107.267.192.42.254.2.07.411.1.622.092a1.256 1.256 0 001.131-.721c.276-.482.416-1.167.416-2.058a6.305 6.305 0 00-.074-1.018 2.83 2.83 0 00-.226-.78 1.356 1.356 0 00-.41-.51 1.003 1.003 0 00-.608-.18c-.649 0-1.07.398-1.255 1.19l-.016 3.731zm4.56-2.287c0-1.206.207-2.09.622-2.655a2.053 2.053 0 011.771-.848c.818 0 1.421.29 1.809.869.388.579.581 1.457.581 2.634 0 1.207-.209 2.093-.629 2.66a2.062 2.062 0 01-1.764.844c-.82 0-1.423-.29-1.809-.87-.386-.581-.58-1.459-.581-2.634zm1.002 0a7.36 7.36 0 00.072 1.07c.04.287.121.566.242.828.096.215.246.402.434.543.188.132.413.199.643.192a1.129 1.129 0 001.042-.622c.226-.414.349-1.083.349-2.01a7.003 7.003 0 00-.075-1.064 3.014 3.014 0 00-.24-.836 1.414 1.414 0 00-.436-.541 1.06 1.06 0 00-.64-.194 1.133 1.133 0 00-1.039.628c-.235.42-.352 1.088-.352 2.006zm9.067 2.882a2.211 2.211 0 01-.814.452 3.39 3.39 0 01-1.045.161 2.272 2.272 0 01-1.09-.249 2.063 2.063 0 01-.76-.708 3.257 3.257 0 01-.453-1.104 6.661 6.661 0 01-.14-1.442c0-1.143.209-2.013.627-2.608a2.037 2.037 0 011.78-.905 3 3 0 01.742.093c.249.065.476.194.66.375.218.222.381.493.475.79.135.427.196.874.181 1.323 0 .15-.007.313-.02.488l-.046.54h-3.392c-.003.35.028.7.092 1.043.052.28.151.55.294.797.127.21.304.385.516.508.241.127.511.189.783.18.244 0 .486-.046.714-.134a1.47 1.47 0 00.541-.321l.355.721zm-.749-3.585c.019-.668-.075-1.158-.28-1.47a.961.961 0 00-.841-.468 1.172 1.172 0 00-.977.468c-.24.312-.385.803-.428 1.47h2.526zm3.732 1.032h-.495v3.008h-.963v-6.686h.963v3.022l.453-.188 1.63-2.834h1.029l-1.583 2.687-.468.452.574.536 1.713 3.022h-1.149l-1.704-3.02zm7.195-2.81h-1.644v5.818h-.964v-5.818h-1.644v-.868h4.252v.868zm1.767 4.947c.242.052.488.079.735.081.427 0 .726-.113.905-.341a1.62 1.62 0 00.253-.982 1.58 1.58 0 00-.247-.943c-.165-.226-.452-.341-.877-.341a3.57 3.57 0 00-.373.02 2.16 2.16 0 00-.387.075l-.009 2.43zm0-3.262a4.35 4.35 0 01.495-.083c.161-.012.312-.018.453-.018.314-.01.627.042.922.151.23.09.435.235.595.423.151.186.259.403.315.636.064.255.096.517.095.78 0 .811-.181 1.4-.543 1.767-.36.364-.962.547-1.798.547-.505 0-1.009-.026-1.511-.08v-6.676h.963l.014 2.553zm3.689-2.553h.963v6.686h-.968l.005-6.686zM51.358 29.43l.036-.584h-.036l-.227.597-1.64 2.887h-.316v-4.434h.475v2.94l-.045.57h.024l.227-.594 1.646-2.92h.312v4.433h-.456V29.43zm2.628.145h-.692c0 .36-.03.705-.05 1.042a6.513 6.513 0 01-.111.89 1.844 1.844 0 01-.226.617.452.452 0 01-.387.226c-.062 0-.124-.004-.185-.011a.516.516 0 01-.138-.046l.07-.398a.32.32 0 00.237-.016c.07-.036.13-.147.181-.33.064-.276.105-.558.122-.841.032-.377.055-.894.068-1.55h1.563v3.167h-.452v-2.75zm1.658 2.343c.114.024.23.037.348.038.398 0 .595-.208.595-.626a.679.679 0 00-.138-.453.56.56 0 00-.453-.16.976.976 0 00-.362.036l.01 1.165zm0-1.545c.079-.016.159-.027.24-.034h.225c.155-.005.308.02.453.075a.737.737 0 01.464.5c.034.12.05.244.05.368a1.095 1.095 0 01-.279.837 1.246 1.246 0 01-.875.26c-.24 0-.48-.012-.72-.038v-3.167h.453l-.011 1.199zm3.508.133l.038-.481h-.025l-.226.531-1.07 1.774h-.298v-3.167h.452v1.882l-.038.452h.025l.208-.518 1.083-1.825h.298v3.167h-.452l.005-1.814zm4.774-1.603c.001.111-.012.222-.038.33a1.075 1.075 0 01-.12.31 1.032 1.032 0 01-.206.26.77.77 0 01-.3.172v.036c.101.021.2.056.291.104.096.05.18.12.247.204.076.093.134.2.172.314.045.146.067.3.063.453.005.202-.032.404-.109.592a1.068 1.068 0 01-.294.407 1.187 1.187 0 01-.43.226c-.166.052-.34.078-.515.077h-.457c-.088 0-.176-.015-.262-.027a1.39 1.39 0 01-.238-.047v-4.38a5.37 5.37 0 011.006-.088c.145 0 .289.014.43.041.139.025.27.078.387.156.12.08.215.19.276.32.077.169.112.354.104.54h-.007zm-1.203 3.04a.948.948 0 00.317-.052.736.736 0 00.432-.425.988.988 0 00.063-.365.96.96 0 00-.08-.42.655.655 0 00-.494-.371 1.759 1.759 0 00-.333-.032h-.423V31.9a.34.34 0 00.097.018l.134.013h.15l.137.012zm-.258-2.077h.202c.063-.002.127-.008.19-.018a.982.982 0 00.402-.307.821.821 0 00.167-.523.933.933 0 00-.056-.35.577.577 0 00-.156-.227.62.62 0 00-.226-.117 1.115 1.115 0 00-.279-.034h-.298a1.886 1.886 0 00-.201.023v1.551l.255.002zm2.185-.513c.14-.082.293-.142.453-.177.181-.043.367-.064.554-.063a.996.996 0 01.427.08c.103.05.191.129.254.226a.76.76 0 01.12.31c.019.12.028.242.029.364 0 .253 0 .502-.016.741-.016.24-.016.469-.016.679 0 .16 0 .31.016.452.008.131.028.262.059.39h-.349l-.106-.374h-.025a.861.861 0 01-.28.285.906.906 0 01-.493.12.724.724 0 01-.561-.226.937.937 0 01-.226-.656c-.005-.156.026-.31.09-.452a.747.747 0 01.26-.297c.12-.08.256-.136.398-.163a2.64 2.64 0 01.518-.045h.258a3.38 3.38 0 00.02-.348.88.88 0 00-.108-.507.451.451 0 00-.394-.145c-.13.002-.259.02-.384.052-.122.03-.24.077-.349.139l-.149-.385zm1.373 1.534a1.164 1.164 0 00-.127 0h-.126c-.1 0-.2.008-.299.024a.807.807 0 00-.258.09.466.466 0 00-.248.444.576.576 0 00.124.391.409.409 0 00.319.14.62.62 0 00.414-.126.7.7 0 00.201-.278v-.685zm1.192-1.724h.321l.07.344h.025a.78.78 0 01.735-.419.847.847 0 01.751.373c.168.25.251.656.251 1.222.003.242-.026.484-.083.72a1.72 1.72 0 01-.227.544.99.99 0 01-.852.459 1.449 1.449 0 01-.294-.022.79.79 0 01-.227-.093v1.305h-.452l-.018-4.433zm.452 2.667c.06.05.127.09.2.12a.808.808 0 00.293.045.597.597 0 00.534-.342 2 2 0 00.195-.975 3.137 3.137 0 00-.034-.484 1.339 1.339 0 00-.11-.368.637.637 0 00-.195-.242.47.47 0 00-.288-.084c-.307 0-.506.188-.595.563v1.767zm3.674-2.262h-.69c-.014.36-.03.705-.05 1.042a6.497 6.497 0 01-.113.89 1.844 1.844 0 01-.226.617.45.45 0 01-.387.226c-.061 0-.123-.003-.183-.011a.563.563 0 01-.14-.046l.07-.398a.325.325 0 00.226-.015c.07-.037.131-.147.18-.33.066-.277.107-.559.125-.842.032-.378.052-.893.066-1.55h1.565v3.167h-.452l.009-2.75zm1.171-.226c.141-.082.294-.142.453-.177.181-.043.367-.064.554-.063a.981.981 0 01.427.079c.104.05.192.129.254.226a.76.76 0 01.12.31c.02.12.03.242.029.364 0 .254 0 .502-.016.742s-.016.468-.016.679c0 .16 0 .31.016.452.01.131.03.261.061.39h-.348l-.109-.374h-.025a.876.876 0 01-.278.285.904.904 0 01-.495.12.722.722 0 01-.559-.226.928.928 0 01-.226-.656.99.99 0 01.093-.453.762.762 0 01.257-.296c.122-.08.258-.136.4-.163a2.57 2.57 0 01.517-.045h.262c.011-.131.018-.247.018-.348a.88.88 0 00-.109-.507.452.452 0 00-.39-.145c-.131.002-.261.02-.388.052-.121.03-.239.076-.348.138l-.154-.384zm1.373 1.533a1.164 1.164 0 00-.127 0h-.126c-.1 0-.199.009-.296.025a.844.844 0 00-.26.09.483.483 0 00-.181.17.527.527 0 00-.066.274.566.566 0 00.124.391.405.405 0 00.32.14.613.613 0 00.41-.126.68.68 0 00.202-.278v-.686zm3.293-.436l.046-.602h-.025l-.19.538-.597 1.22h-.163l-.615-1.215-.17-.538h-.032l.05.594v1.887h-.412v-3.167h.453l.69 1.375.138.412h.013l.152-.425.64-1.357h.468v3.166h-.452l.006-1.888zm1.066.296c0-.57.098-.99.294-1.258a.983.983 0 01.839-.4.954.954 0 01.857.412c.21.38.306.813.276 1.246 0 .574-.097.995-.296 1.26a.983.983 0 01-.837.4.96.96 0 01-.857-.412 2.262 2.262 0 01-.276-1.248zm.475 0c-.001.17.01.339.034.507.019.136.058.268.115.393a.65.65 0 00.206.256.502.502 0 00.303.092.534.534 0 00.493-.294c.13-.3.187-.627.165-.954a3.37 3.37 0 00-.034-.502 1.39 1.39 0 00-.113-.396.665.665 0 00-.208-.258.502.502 0 00-.303-.09.533.533 0 00-.49.296 2.035 2.035 0 00-.168.95zm2.4-1.583l.386-.032c.14-.014.306-.018.5-.018.26-.024.52.044.735.192a.738.738 0 01.226.586c0 .15-.037.297-.106.43a.679.679 0 01-.35.319v.024a.678.678 0 01.431.256c.092.154.136.33.127.509a.841.841 0 01-.292.717 1.43 1.43 0 01-.868.226c-.143 0-.28 0-.412-.016l-.373-.036-.005-3.157zm.452 2.768l.178.018h.213a.701.701 0 00.473-.133.656.656 0 00.02-.808.581.581 0 00-.452-.149h-.423l-.01 1.072zm.468-1.425a.48.48 0 00.319-.154.525.525 0 00.106-.16.513.513 0 00.037-.193.486.486 0 00-.118-.361.572.572 0 00-.4-.113h-.243l-.17.01v.964l.469.007zm1.595-1.16c.14-.082.293-.141.452-.177.181-.043.368-.064.554-.063a.995.995 0 01.428.08.63.63 0 01.253.225.759.759 0 01.12.31c.019.12.029.242.03.364 0 .254 0 .503-.017.742-.015.24-.015.469-.015.679 0 .16 0 .31.015.452.009.131.029.262.06.39h-.35l-.105-.374h-.028a.876.876 0 01-.278.285.905.905 0 01-.493.12.724.724 0 01-.56-.226.94.94 0 01-.227-.656 1.02 1.02 0 01.093-.453.747.747 0 01.26-.296c.12-.08.256-.136.398-.163.17-.032.343-.047.516-.045H85c.013-.116.02-.232.02-.348a.88.88 0 00-.108-.507.453.453 0 00-.394-.145c-.13.002-.259.02-.385.052-.121.03-.239.076-.348.138l-.151-.384zm1.375 1.533a1.164 1.164 0 00-.127 0h-.127c-.1 0-.2.009-.298.025a.808.808 0 00-.258.09.453.453 0 00-.18.17.507.507 0 00-.067.274.56.56 0 00.123.391.404.404 0 00.319.14.611.611 0 00.615-.404v-.686zm4.11-.38l.038-.481h-.027l-.226.531-1.072 1.773h-.285v-3.166h.452v1.882l-.038.452h.024l.208-.518 1.084-1.825h.305v3.166h-.452l-.011-1.814zm5.326-1.09l.057-.678h-.025l-.204.628-.904 1.925h-.159l-.936-1.925-.197-.628h-.007l.088.678v2.913h-.452v-4.433h.398l1.07 2.178.158.52h.014l.151-.524 1.014-2.174h.418v4.433h-.475l-.009-2.913zm1.222-.063c.14-.082.293-.141.452-.177.181-.043.367-.064.554-.063a.982.982 0 01.427.08.62.62 0 01.254.225.763.763 0 01.122.31c.018.12.027.243.027.364 0 .254 0 .503-.016.742-.016.24-.016.469-.016.679 0 .16 0 .31.016.452.01.131.031.261.061.39H97.2l-.109-.374h-.024a.876.876 0 01-.279.285.906.906 0 01-.493.12.724.724 0 01-.56-.226.927.927 0 01-.227-.656 1.02 1.02 0 01.093-.453.748.748 0 01.26-.296c.12-.08.256-.136.398-.163.17-.032.343-.047.516-.045h.26a3.35 3.35 0 00.018-.348.884.884 0 00-.106-.507.453.453 0 00-.394-.145c-.13.002-.26.02-.387.052-.121.03-.238.077-.348.138l-.151-.384zm1.375 1.533a1.217 1.217 0 00-.127 0h-.127c-.1 0-.2.009-.298.025a.843.843 0 00-.26.09.482.482 0 00-.181.17.527.527 0 00-.066.274.565.565 0 00.125.391.404.404 0 00.319.14.613.613 0 00.411-.126.71.71 0 00.204-.278v-.686zm1.88.019h-.227v1.424h-.452v-3.166h.452v1.432l.215-.089.773-1.343h.487l-.753 1.273-.227.21.272.252.812 1.431h-.545l-.808-1.424zm3.458 1.266c-.108.082-.23.142-.36.179a1.654 1.654 0 01-.425.056 1.027 1.027 0 01-.514-.117.903.903 0 01-.339-.335 1.68 1.68 0 01-.19-.527 3.764 3.764 0 01-.059-.679c-.028-.43.072-.86.287-1.235a.94.94 0 01.826-.423c.143-.002.286.012.425.044.106.024.208.063.303.115l-.124.398a1.088 1.088 0 00-.552-.145.556.556 0 00-.516.301c-.136.295-.196.62-.174.945-.001.164.011.328.039.489.02.138.062.272.126.396a.744.744 0 00.227.264.59.59 0 00.348.1.849.849 0 00.538-.19l.134.364zm2.083-1.665l.038-.481h-.025l-.226.531-1.07 1.773h-.298v-3.166h.452v1.882l-.038.452h.024l.209-.518 1.083-1.825h.299v3.166h-.453l.005-1.814zm3.306-.056l.043-.602h-.024l-.19.539-.6 1.225h-.165l-.615-1.214-.17-.538h-.031l.049.594v1.887h-.402v-3.167h.452l.69 1.375.14.412.152-.425.64-1.357h.468v3.166h-.452l.015-1.895zm1.172-1.097c.141-.082.294-.141.452-.177.18-.038.362-.056.546-.052a.988.988 0 01.427.08c.104.05.191.128.253.226a.742.742 0 01.12.31c.021.12.03.242.03.364 0 .253 0 .502-.016.742s-.016.468-.016.678c0 .16 0 .31.016.453.009.13.03.26.061.389h-.348l-.109-.374h-.025a.867.867 0 01-.28.285.906.906 0 01-.493.12.726.726 0 01-.561-.226.937.937 0 01-.227-.656c-.004-.156.027-.31.091-.452a.763.763 0 01.26-.297c.121-.08.257-.136.4-.162.17-.033.343-.048.516-.046h.26c0-.13.018-.246.018-.348a.877.877 0 00-.108-.507.455.455 0 00-.392-.144c-.13.002-.26.02-.386.052a1.38 1.38 0 00-.349.138l-.14-.396zm1.373 1.533a1.12 1.12 0 00-.127 0h-.126c-.1 0-.199.009-.297.025a.842.842 0 00-.26.09.47.47 0 00-.181.17.503.503 0 00-.065.274.57.57 0 00.122.391.408.408 0 00.321.14.615.615 0 00.412-.126.675.675 0 00.201-.278v-.686zm3.268-.608h-.226v2.051h-.477v-4.433h.475v2.065l.226-.088 1.154-1.977h.545l-1.161 1.914-.226.201.26.253 1.285 2.065h-.602l-1.253-2.051zm2.357-.925a1.59 1.59 0 01.453-.177c.181-.043.367-.064.554-.063a.995.995 0 01.427.08.62.62 0 01.254.225.755.755 0 01.119.31c.021.12.03.242.03.364 0 .254 0 .503-.016.742-.016.24-.016.469-.016.679 0 .16 0 .31.016.452.009.131.028.262.059.39h-.346l-.109-.374h-.025a.88.88 0 01-.28.285.907.907 0 01-.493.12.726.726 0 01-.561-.226.932.932 0 01-.226-.656c-.004-.156.027-.31.092-.453a.771.771 0 01.26-.296 1.09 1.09 0 01.399-.163 2.61 2.61 0 01.515-.045h.263a3.69 3.69 0 00.02-.348.878.878 0 00-.109-.507.45.45 0 00-.391-.145c-.13.002-.26.02-.387.052-.122.03-.239.076-.348.138l-.154-.384zm1.373 1.533a1.12 1.12 0 00-.127 0h-.126a1.85 1.85 0 00-.297.025.851.851 0 00-.26.09.47.47 0 00-.181.17.503.503 0 00-.065.274.575.575 0 00.122.391.408.408 0 00.321.14.615.615 0 00.412-.126.701.701 0 00.201-.278v-.686zm3.515 2.249h-.317l-.074-.806h-1.932v-3.166h.452V31.9h1.045v-2.737h.453v2.755h.366l.007 1.199zm.452-3.782c.141-.082.294-.142.453-.177.181-.043.367-.064.554-.063a.995.995 0 01.427.08c.104.05.191.128.254.225.061.094.102.2.12.31.018.12.027.243.027.364 0 .254 0 .503-.016.742-.016.24-.016.469-.016.679 0 .16 0 .31.016.452.01.131.031.261.061.39h-.348l-.109-.374h-.025a.873.873 0 01-.278.285.903.903 0 01-.495.12.724.724 0 01-.559-.226.926.926 0 01-.226-.656c-.004-.156.027-.31.092-.453a.75.75 0 01.261-.296c.12-.08.255-.136.398-.163.17-.032.342-.047.515-.045h.26a3.12 3.12 0 00.019-.348.894.894 0 00-.107-.507.449.449 0 00-.393-.145 1.65 1.65 0 00-.387.052c-.122.03-.239.077-.348.138l-.15-.384zm1.376 1.533a1.223 1.223 0 00-.127 0h-.127c-.1 0-.2.009-.298.025a.842.842 0 00-.26.09.45.45 0 00-.179.17.505.505 0 00-.068.274.57.57 0 00.104.394.397.397 0 00.319.14.613.613 0 00.412-.127.715.715 0 00.203-.278l.021-.688z" fill="currentColor"/><path d="M11.631 14.98v-.051c0-.93 0-1.34 1.054-1.572l3.273-.726a.227.227 0 01.11-.095c.36-.145 1.385-.74 2.06-.658 1.227.147 1.044.594.08.922-.762.26-1.809.134-2.015.14h-.036a.276.276 0 01-.086-.015l-3.311.735c-.792.176-.794.511-.799 1.271v.05h.226a.156.156 0 110 .312h-.056v5.616h.056a.16.16 0 01.166.154.158.158 0 01-.134.154v7.213c0 .807.394 1.463.878 1.463h.07v.226a.073.073 0 01-.047.066.072.072 0 01-.028.004h-2.447a.072.072 0 01-.068-.042.073.073 0 01-.007-.028v-.226c.453-.04.833-.679.833-1.461 0-2.402-.018-4.809-.02-7.213a.155.155 0 01.031-.308h.056v-5.618h-.056a.156.156 0 110-.312h.217z" fill="#BD7ABD"/><path d="M27.577 19.525a3.04 3.04 0 00-1.54.417V18.22c0-.452-.396-.923-.636-1.287a1.21 1.21 0 10-1.034-.025c-.192.292-.748 1.156-.748 1.509 0 .26-.032 2.036.045 2.92l-1.011.597v-1.7c0-.453-.396-.924-.636-1.288a1.21 1.21 0 10-1.033-.025c-.193.292-.749 1.156-.749 1.51 0 .257-.03 2.012.043 2.901l-1.038.595v-1.778c0-.452-.396-.923-.634-1.285a1.214 1.214 0 10-1.036-.027c-.192.292-.746 1.158-.746 1.511 0 .265-.034 2.113.05 2.972l-.344.201a3.066 3.066 0 10-.952 5.98 4.478 4.478 0 001.617-.316c2.741-1.224 7.867-4.838 9.344-5.707a3.065 3.065 0 101.029-5.953h.009zm0 5.336a2.263 2.263 0 01-1.22-.357c-2.713 1.682-6.882 4.645-9.587 5.9a2.568 2.568 0 01-1.183.209 2.179 2.179 0 11.905-4.157l9.823-5.752a2.48 2.48 0 01.226-.138 2.261 2.261 0 111.024 4.297l.012-.002z" fill="#00B93E"/><path d="M24.872 3.948h-3.845v-.174a.097.097 0 00-.098-.097h-.728a.097.097 0 00-.097.097v.179h-1.452c-.88 0-.806 4.541 0 4.541h6.22c.805-.004.88-4.546 0-4.546zm-.394 3.965H19.05c-.645 0-.704-3.393 0-3.393h5.428c.704.003.642 3.393 0 3.393z" fill="#FF2A31"/><path d="M21.744 4.742a1.341 1.341 0 100 2.683 1.341 1.341 0 000-2.683zm0 2.226a.884.884 0 11.009-1.769.884.884 0 01-.01 1.769zm2.732-2.138h-.728a.097.097 0 00-.098.098v.475c0 .054.044.097.098.097h.728a.097.097 0 00.097-.097v-.475a.097.097 0 00-.097-.097z" fill="#FF2A31"/><path d="M35.86 5.204h-3.994l1.655-1.729a24.047 24.047 0 00-.518-.316L31.01 5.194h-.826l2.293-2.35a20.323 20.323 0 00-1.056-.554l-2.845 2.907h-1.493c-1.905 0-1.791 6.35-1.68 6.35h1.34a.936.936 0 001.871 0h8.27a.936.936 0 001.87 0h1.23a.936.936 0 00.756-.386 21.4 21.4 0 00-1.746-2.669h-1.147V7.126a21.35 21.35 0 00-.77-.8v2.173h-2.324V6.133h2.13a22.077 22.077 0 00-1.026-.93h.004zm-4.243.93h2.325v2.365h-2.325V6.133zm-3.144 0h2.334v2.365h-2.334V6.133zm-1.531 0h.8v2.365h-.8V6.133z" fill="#00B7DE"/><path d="M24.162 4.38v.957a.453.453 0 01-.905 0V3.833a1.452 1.452 0 011.445-1.448h2.273l1.312-1.008a.347.347 0 01.423.55l-.986.76.285 1.173a.521.521 0 01.052.14l.247 1.244a.46.46 0 11-.905.177l-.154-.78-.226.8a.453.453 0 01-.878-.226l.226-.814-2.21-.02zm-2.886-2.608h.357a.968.968 0 01.344-.642l.28-.873c.383.287 1.45 1.199 1.405 1.852a.837.837 0 01-.803.724h-1.583a.531.531 0 110-1.06zM26.394.587L24.442 2.09a.227.227 0 11-.256-.35l1.64-1.27c.19.035.38.07.568.11v.008z" fill="#BD7ABD"/><path d="M14.23 20.527c-.122-.452-.378-.844-.844-.844H9.618l1.48-1.479-2.224-2.216-2.223 2.223 1.479 1.48H.867c-.02.26-.036.52-.05.782h1.99v2.246H.834c.06 1.041.197 2.077.41 3.098h.015v.025l.12.539a.484.484 0 00.762-.563h.589a.482.482 0 10.87 0h.627a.493.493 0 00-.048.207.484.484 0 00.966 0 .493.493 0 00-.047-.208h4.467a.49.49 0 00.096.55.482.482 0 00.775-.55h.601a.492.492 0 00.096.55.482.482 0 00.775-.55h.627a.49.49 0 00.095.55.482.482 0 00.775-.55c.453 0 .722-.395.826-.843l.563-2.407-.563-2.04zm-8.41 2.185H3.56v-2.246h2.26v2.246zm3.031 0H6.59v-2.246h2.26v2.246zm.023-3.214L7.58 18.204l1.294-1.296 1.294 1.296-1.294 1.294zm2.954 3.214H9.566v-2.246h2.262v2.246zm1.558 0h-.79v-2.246h.79v2.246z" fill="#FF8814"/><path d="M21.466 6.583a.489.489 0 010 .679c-.407.398-.857.834-1.335 1.293h.577a.489.489 0 010 .975h-1.515a.322.322 0 01-.066 0c-.434.421-.882.85-1.33 1.278h.946a.49.49 0 01.48.682.488.488 0 01-.48.293h-1.964l-.959.918a1.61 1.61 0 00-.59 1.217v2.303h-2.108v-2.307a1.61 1.61 0 00-.588-1.217l-.984-.918H9.596a.488.488 0 010-.975h.945l-1.33-1.276H7.628a.489.489 0 010-.975h.574c-.477-.452-.927-.905-1.334-1.294a.487.487 0 11.679-.698l1.289 1.266v-.42a.488.488 0 11.975 0v1.232a.475.475 0 01-.018.127l1.501 1.47v-.882a.486.486 0 11.973 0v1.837l1.4 1.356V9.924l-.014-.014a1245.67 1245.67 0 01-4.277-4.189H7.732a21.093 21.093 0 012.12-1.703v.799l3.82 3.743V6.823l-1.566-1.527a.486.486 0 11.679-.699l.886.867V3.898h-2.573a.49.49 0 01-.478-.391 20.2 20.2 0 01.966-.583h1.131l-.402-.394c.301-.15.603-.298.904-.441.143.133.31.262.466.416v-.622c.324-.14.652-.272.984-.396v1.03c.375-.37.821-.61.821-1.07v-.245C16.322.93 17.17.71 18.03.544a.452.452 0 01-.11.16l-.68.666h.49a.488.488 0 010 .974h-1.487l-.622.59h1.62a.488.488 0 110 .976h-2.586v1.56l.887-.864a.487.487 0 11.679.7l-1.566 1.526v1.74c1.276-1.246 2.55-2.494 3.823-3.744V1.447a.487.487 0 01.973 0v2.426l.76-.74a.486.486 0 11.678.697l-.95.928h.966a.488.488 0 110 .975h-1.959l-4.275 4.189-.016.013v2.633l1.4-1.357V9.363a.486.486 0 11.973 0v.882l1.502-1.47a.476.476 0 01-.018-.127V7.415a.488.488 0 11.975 0v.43l1.291-1.262a.486.486 0 01.679 0h.009z" fill="#00B93E"/><path d="M39.389 29.12l-.012.018-.459-.287-.534-.326v-.016c.184-.472.411-.926.679-1.357a8.68 8.68 0 01.868-1.185l.534.326.452.283a8.68 8.68 0 00-.868 1.185c-.267.43-.494.885-.679 1.357l.019.002zm-2.097 3.427v-.018l-.468-.288-.534-.325v.018a8.684 8.684 0 00-1.559 2.528l.534.326.453.283c.18-.456.4-.895.658-1.312.264-.432.567-.84.905-1.217l.01.005zm1.74-1.154a4.192 4.192 0 01-1.41 1.357c-.295.366-.566.75-.812 1.152a10.36 10.36 0 00-.701 1.357c1 .452 2.703-.64 4.042-2.556.12-.172.237-.35.35-.534 1.38-2.262 1.704-4.591.767-5.342a10.698 10.698 0 00-1.543 2.488 4.24 4.24 0 01-.64 1.985l-.054.086v.007z" fill="#FF1B0D"/><path d="M40.71 25.184l-1.602-.04a.308.308 0 00-.016.613l1.602.04a.307.307 0 00.015-.613zM39.184 11.6l.452 10.223a.226.226 0 01-.226.226.226.226 0 01-.237-.226l-.453-10.228c-.572.107-.904.563-1.212 1.722l-3.182 14.201a.31.31 0 11-.607-.135l3.176-14.155c.201-1.173.945-2.223 2.088-2.223 1.06 0 1.793.764 2.105 1.945v.059c.02.072.037.15.052.226l2.18 9.726a21.697 21.697 0 01-.214 1.873l-2.585-11.535c-.276-1.131-.679-1.633-1.357-1.704l.02.005zm-.04 10.658l1.026.276.045-.2a.682.682 0 011.241-.204.68.68 0 01.085.514l-.324 1.376c-.088.375-.273.922-.796.904l-1.004-.034c-.452 0-.43-.083-.832.138l-.756.419c-.823.452-1.004-.414-.56-.663.442-.249.94-.56 1.381-.773.337-.175 1.131.196 1.244-.301l.13-.555-1.046-.278a.324.324 0 01-.226-.393.321.321 0 01.391-.226zm1.935-2.242a.791.791 0 11.005 1.583.791.791 0 01-.005-1.583z" fill="#FF3A3A"/><path d="M18.677 38.58a4.143 4.143 0 01-7.941-2.058 4.142 4.142 0 012.128-3.157v1a3.3 3.3 0 105.24 3.166l.573 1.05zm-4.216-7.567a1.117 1.117 0 011.113 1.113v.74h2.036a.55.55 0 010 1.096h-2.036v.855h2.7c.135 0 .267.036.383.104.115.061.21.154.276.267l1.732 3.002a.692.692 0 01-1.199.69l-1.465-2.536h-3.538a.77.77 0 01-.25-.043 1.117 1.117 0 01-.853-1.088v-3.087a1.115 1.115 0 011.112-1.113h-.011zm.052-2.554a1.13 1.13 0 110 2.26 1.13 1.13 0 010-2.26z" fill="#DC4F90"/><path d="M18.387 41.533h4.35v-1.85l-4.176-.018 3.456-2.92-2.053-.023 2.571-2.368h-1.149l1.835-1.732.337-.324.129.127 2.035 1.93h-1.151l2.585 2.367-2.051.023 3.454 2.92h-3.992v1.857h3.259a10.706 10.706 0 01-9.428 0l-.01.011z" fill="#00B93E"/><path d="M1.638 25.189v-.663l1.328.018v.663l-1.328-.018zm1.99.027v-.665l1.328.018v.663l-1.327-.016zm1.989.025v-.663l1.327.016v.665l-1.327-.018zm1.99.025v-.663l1.328.018v.663l-1.328-.018zm1.99.027v-.663h.8v1.183H9.74v-.527l-.142.007zm.145 1.192h.663v1.328H9.74l.002-1.328zm0 1.99h.663v1.328H9.74l.002-1.328zm.724 1.93v-.665h1.325v.663l-1.325.002zm1.99 0v-.663h1.328v.665l-1.328-.002zm1.99 0v-.665h1.329v.665h-1.328zm1.991 0v-.663h1.328v.665l-1.328-.002zm1.99 0v-.663h1.328v.665l-1.327-.002zm1.991 0v-.663h1.328v.665l-1.328-.002zm1.99 0v-.663h1.328v.663h-1.328zm1.99 0v-.663h1.326v.663H24.4zm1.991 0v-.663h1.326v.663h-1.326zm1.988 0v-.663h1.326v.663h-1.326zm1.26.068h.663v1.325h-.665l.002-1.325zm0 1.99h.663v1.328h-.656l-.007-1.328zm0 1.99h.686v1.326h-.679l-.007-1.326zm0 1.99h.686v1.326h-.665l-.02-1.325zm0 1.989h.686v1.325h-.663l-.023-1.325zm0 1.99h.686v.672c-.227.09-.44.179-.663.262l-.023-.934z" fill="#BD7ABD"/><path d="M6.88 27.557c-2.235 0-4.05.522-4.05 1.167.001.042.01.083.023.122l.278 1.948c.34.698.718 1.377 1.131 2.035l-.09-.678c.46.089.925.15 1.393.183l.072.997a5.74 5.74 0 01-1.187-.226c.188.287.382.572.584.85.212.032.432.057.656.075l.058.81h-.045c.24.298.486.592.742.877v-.13c.378 0 .76 0 1.13-.023l-.06.864c-.125 0-.254.018-.387.022.348.36.712.706 1.086 1.04.868-.13 1.479-.386 1.547-.678a.201.201 0 000-.034l.285-1.992c.02-.074.03-.15.034-.227l.828-5.772a.503.503 0 000-.081c.02-.627-1.792-1.15-4.029-1.15zm-2.805 3.845l-.17-1.262c.5.158 1.016.266 1.538.323l.086 1.19a6.874 6.874 0 01-1.443-.26l-.011.009zm-.326-2.43c.036-.316 1.423-.57 3.13-.57 1.357 0 2.522.161 2.952.388l-.018.013c-.977.844-4.7 1.045-6.064.16v.01zm3.883 5.906c-.411.035-.824.047-1.237.037l-.047-.82c.452.014.905.002 1.357-.035l-.073.818zm.109-1.538c-.482.05-.967.07-1.452.06l-.07-1.003c.528.016 1.056.005 1.583-.034l-.061.977zm.12-1.712a13.46 13.46 0 01-1.692.059l-.081-1.17c.618.034 1.239.015 1.854-.056l-.081 1.167zm1.212 4.264c0 .197-.362.368-.905.472l.062-.836c.318-.039.628-.09.922-.154l-.079.518zm.183-1.357c-.317.116-.646.2-.981.246l.059-.8a8.945 8.945 0 001.024-.202l-.102.756zm.227-1.683a3.063 3.063 0 01-1.1.384l.068-.945c.38-.044.758-.108 1.131-.19l-.1.75zm.226-1.656c-.381.167-.784.28-1.197.333l.086-1.183c.413-.073.82-.178 1.217-.315A.208.208 0 009.872 30l-.163 1.196zm-2.957-20.35c-.113.74-.357 1.636-.529 2.382a191.11 191.11 0 00-.527 2.35c-.274 1.255-.16 1.13-.755 2.124a418.71 418.71 0 00-1.09 1.827c-.2.333-.371.679-.136 1.093a.873.873 0 00.993.41c.502-.143.904-1.041 1.253-1.625.348-.583.714-1.198 1.072-1.81.317-.542.427-2.012.608-2.3.369.351 1.118 1.215 1.495 1.633.48.534.31.188.54 1.358.128.646.227 1.504.408 2.11a.88.88 0 00.629.63.904.904 0 00.918-.318c.317-.452.04-1.357-.097-2.05-.077-.395-.303-1.854-.432-2.09-.059-.105-1.03-1.23-1.147-1.372-.19-.226-.396-.452-.577-.679a8.387 8.387 0 00-.588-.678l.563-2.574a.24.24 0 01.064.063c.276.353.226.785.74 1.143.386.269 1.39.986 1.746 1.203a.633.633 0 00.735-.03.593.593 0 00.113-.746c-.131-.208-1.473-1.072-1.735-1.253-.262-.181-.185-.138-.405-.568L9.607 9.098c-.473-.941-1.357-1.079-2.244-.367L5.99 9.842c-.131.1-1.031.83-1.081.905-.131.187-.34 1.269-.414 1.603-.086.387-.387 1.292-.17 1.6.218.307.905.49 1.102-.419.118-.547.226-1.077.353-1.624.106-.493.088-.373.387-.622.18-.168.377-.32.585-.452v.013zm1.812-5.364c-1.692.328-1.226 2.816.441 2.538 1.667-.279 1.199-2.866-.452-2.538h.011zm1.653 16.957h1.333v-1.056h-1.341l.008 1.056z" fill="#FF2A31"/><path d="M4.369 18.607h1.395l.152-.016V17.4l-.15-.022H4.371l-.002 1.23zm.525 3.832H6.22v-1.056H4.896l-.002 1.056zm-2.665 0h1.33v-1.056H2.231l-.002 1.056zm10.619 0h1.33v-1.056h-1.323l-.007 1.056zm-.457-3.832h1.543v-1.226H12.4l-.009 1.226z" fill="#FF2A31"/><path d="M33.29 33.415c.05.106.857.887 1.009 1.04.151.154.335.338.516.516.678.665 1.035 1.011.156 1.841-.536.507-1.032 1.018-1.559 1.505l-.513.515c-.161.19-.363.34-.59.441a.764.764 0 01-.941-.972c.122-.38 1.239-1.226 1.463-1.559-1.531-.04-3.115 0-4.655 0-.434 0-3.137.064-3.433-.068a.758.758 0 01-.453-.714c.027-.905 1.05-.735 1.6-.735h4.659c.76 0 1.565.024 2.318 0a2.493 2.493 0 00-.452-.496c-.66-.678-1.131-.893-.943-1.65l.01-.014.015-.014.06-.084a.56.56 0 01.089-.102c.74-.69 1.377.41 1.649.56l-.005-.01zm-1.146-2.343v.665l-1.328.012v-.665l1.328-.012zm10.212-3.732v.665H41.03v-.665h1.326zm-1.99 0v.665H39.04v-.665h1.325zm-1.989 0v.665H37.05v-.665h1.328zm-1.99 0v.665h-.369v.292h-.665v-.959l1.034.002zm-1.027 1.624h.663v1.328h-.656l-.007-1.328zm0 1.99h.663v.754H34.8v-.665h.572l-.013-.088zm-1.237.102v.663h-1.328v-.663h1.328z" fill="#BD7ABD"/><path d="M26.025 17.639a3.303 3.303 0 01.548-1.493c.19-.287.719-.88 1.045-.98.156.227.823 1.478 1.02 1.826.128.205.238.422.328.647h-2.94zm-7.588-2.28c1.214.837 1.889 2.94.737 4.598-.113.16-.237.311-.373.453a2.14 2.14 0 01-.434.384c-2.807 2.002-6.648-.961-5.008-4.334 1.034-2.135 3.872-2.035 4.379-1.51-.07.187-.742 1.357-.887 1.597-.31.531-.96 1.413-.438 1.644.382.167.547-.226.69-.489.207-.38 1.232-2.241 1.343-2.343h-.01zm9.916-.538c.531-.322 1.73-.165 2.277.047 2.059.81 2.816 3.375 1.552 5.12-1.911 2.638-5.858 1.405-6.159-1.564h2.37c.713 0 1.927.185 1.62-.563-.17-.414-1.57-2.744-1.66-3.04zm-8.414-2.206l2.013 3.475c.328.599.665 1.153.997 1.762.226.43.226.574.833.57.434-.024.87-.024 1.305 0 .147.633.151.904.416 1.479.254.51.598.969 1.015 1.357 1.441 1.228 3.597 1.486 5.203.414 3.903-2.608 1.608-8.5-2.889-7.917-.35.046-.656.172-.954.213l-.846-1.497c-.118-.226 0-.333.253-.787.1-.175.324-.659.464-.754.393 0 1.454.104 1.67-.13a.394.394 0 00-.107-.603c-.186-.085-2.461-.054-2.733-.045-.27.01-.497.15-.434.482.064.332.315.283.65.303l-.317.618H20.57l1.024-1.85c.568-.016 1.145 0 1.715 0 .767 0 .678-.765.086-.779-.593-.013-1.154 0-1.726 0-.678 0-.538.025-.957.758-.418.733-.812 1.47-1.246 2.203-.434.733-.819 1.515-1.258 2.235-.692-.242-1.065-.412-1.927-.398a4.217 4.217 0 00-1.881.468 4.323 4.323 0 00-.441 7.437c4 2.69 8.88-2.384 5.774-6.293a7.72 7.72 0 00-.846-.823l1.052-1.898zm4.12 5.03c.021-.149 1.037-1.965 1.202-2.261.276-.482 1.018-1.932 1.237-2.237.262.382.483.79.658 1.22-.282.15-.544.338-.778.558a4.567 4.567 0 00-1.045 1.628c-.475 1.337.21 1.072-1.28 1.093h.007zm-.741-.723c-.355-.586-2.558-4.488-2.59-4.592h5.313l-2.605 4.739-.118-.147z" fill="#8A2E83"/><path d="M30.18 16.71a1.013 1.013 0 110 2.025 1.013 1.013 0 010-2.025zm2.755 4.967v1.845a.59.59 0 11-1.178 0v-2.37a4.386 4.386 0 00-.213 1.37v6.51a.59.59 0 01-.577.59h-.027a.59.59 0 01-.577-.59v-4.553a.174.174 0 00-.171-.163.172.172 0 00-.17.163v4.553a.593.593 0 01-.577.59h-.027a.59.59 0 01-.577-.59v-6.51a4.388 4.388 0 00-.21-1.37v2.37a.59.59 0 11-1.18 0v-1.845c.11-2.102.979-2.715 2.745-2.672 1.766-.052 2.635.568 2.744 2.672h-.005zm-1.979 7.945h-1.527 1.527zm5.519-3.456H36.2v2.87a.593.593 0 01-.579.59h-.027a.59.59 0 01-.577-.59v-3.05a8.108 8.108 0 01-1.002-.297l1.009-4.13c0-.048-.027-.098-.045-.15l-.563 1.998c-.08.273-.27.538-.63.452-.567-.15-.323-.812-.225-1.13.36-1.132.5-2.061 1.017-2.941.209-.349.66-.586 1.722-.566h.172c1.063-.02 1.515.226 1.723.566.518.87.656 1.81 1.018 2.94.097.31.341.973-.226 1.131-.362.093-.552-.172-.63-.452l-.558-1.99a1.107 1.107 0 00-.045.149l1.009 4.13a8.26 8.26 0 01-1.002.296v3.047a.59.59 0 01-.577.59h-.03a.59.59 0 01-.576-.59v-2.873h-.104zm.694 3.454h-1.558 1.558zm-.715-12.669a1.014 1.014 0 110 2.028 1.014 1.014 0 010-2.028z" fill="#FF8814"/><path d="M19.075 31.323a2.58 2.58 0 01.866-.172h8.744c.31.006.616-.066.891-.208l1.258-.493a.363.363 0 01.26.679l-1.346.529a2 2 0 01-.8.226.738.738 0 11-.83 0H21.09a.737.737 0 11-.83 0h-.369a.835.835 0 00-.323.057l-.29.085a.354.354 0 11-.203-.678v-.025zm-.061-3.943h.013a.345.345 0 00.345.375.346.346 0 00.345-.374.345.345 0 00.484.344.346.346 0 00.206-.345.364.364 0 00.346.351.35.35 0 00.326-.251.09.09 0 00.04 0 .35.35 0 00.324.242.362.362 0 00.344-.357.362.362 0 00.346.357.387.387 0 000-.769.338.338 0 00-.249.115l-.014-.016c.145-.293.084-.721-.013-1.164a7.656 7.656 0 00-.251-1.018c-.125-.109-1.179-.15-1.314-.054-.136.095-.147.425-.373.671-.43.432-1.747.41-1.914 1.077a.597.597 0 000 .4h-.027a.387.387 0 000 .77.364.364 0 00.344-.342.344.344 0 00.678 0l.014-.011z" fill="#00B7DE"/><path d="M33.449 24.752v.283h.977a.604.604 0 010 1.206h-.977v.918h1.624a.414.414 0 01.4.423.426.426 0 01-.278.403.205.205 0 010 .038v2.893a.21.21 0 01-.42 0v-2.913h-.471v1.91a.21.21 0 11-.42 0v-1.91h-10.69v1.91a.21.21 0 01-.42 0v-1.91h-.471v2.913a.212.212 0 11-.423 0V28a.426.426 0 01.036-.844h1.63v-.919h-.974a.604.604 0 010-1.205h.975v-.28h-.975a.602.602 0 110-1.204h11.85a.602.602 0 010 1.203h-.973zm-.412 2.405v-.919H23.99v.919h9.047zm-9.047-2.124h9.047v-.28H23.99v.28z" fill="#FFAE00"/><path d="M34.975 13.147v.28a.694.694 0 01-.692.693h-3.508a.694.694 0 01-.692-.692v-3.282h4.976c.92 0 1.667.665 1.667 1.486 0 .82-.746 1.488-1.667 1.488h-.075l-.009.027zm-6.724 1.337h8.65a.97.97 0 01-.969.968H29.22a.97.97 0 01-.968-.968zm6.724-3.882v2.061h.075a1.038 1.038 0 100-2.065l-.075.004z" fill="#F6EC4A"/><path d="M7.497 22.439h1.339v-1.056H7.479l.018 1.056zm-5.723-3.832h1.389l.156-.018v-1.19l-.147-.022h-1.4l.002 1.23zm16.109 0h1.395l.15-.018v-1.19l-.147-.022h-1.396l-.002 1.23zm-2.667 0h1.396l.15-.018v-1.19l-.15-.022h-1.393l-.003 1.23z" fill="#FF2A31"/></svg>