<svg width="817" height="253" viewBox="0 0 817 253" fill="none" xmlns="http://www.w3.org/2000/svg">
<path d="M311.389 79.333H292.984V129.603H287.001V73.8358H311.375L311.389 79.333ZM306.134 109.689C306.134 102.503 307.369 97.2304 309.839 93.871C311.039 92.2184 312.632 90.891 314.474 90.0089C316.316 89.1267 318.349 88.7175 320.389 88.8184C325.284 88.8184 328.877 90.543 331.168 93.9923C333.458 97.4415 334.617 102.674 334.644 109.689C334.644 116.875 333.396 122.157 330.899 125.534C329.694 127.173 328.103 128.49 326.267 129.366C324.432 130.243 322.408 130.653 320.376 130.56C315.498 130.56 311.905 128.831 309.597 125.372C307.288 121.914 306.134 116.686 306.134 109.689ZM312.103 109.689C312.088 111.822 312.237 113.952 312.547 116.062C312.782 117.766 313.263 119.427 313.976 120.993C314.558 122.272 315.452 123.384 316.576 124.227C317.69 125.011 319.028 125.412 320.389 125.372C321.672 125.412 322.939 125.084 324.042 124.428C325.145 123.771 326.037 122.813 326.614 121.667C327.988 119.197 328.675 115.204 328.675 109.689C328.685 107.571 328.541 105.454 328.244 103.356C328.009 101.633 327.523 99.954 326.803 98.3712C326.225 97.0969 325.335 95.9892 324.216 95.151C323.098 94.3626 321.756 93.9561 320.389 93.9923C319.111 93.9669 317.852 94.3056 316.76 94.9688C315.667 95.6321 314.785 96.5925 314.218 97.7379C312.871 100.231 312.103 104.219 312.103 109.689ZM342.297 89.775H346.339L347.215 94.0731H347.525C348.403 92.4058 349.74 91.0249 351.378 90.0936C353.016 89.1624 354.886 88.7199 356.768 88.8184C358.612 88.712 360.452 89.0885 362.106 89.9108C363.76 90.7331 365.171 91.9727 366.199 93.5072C368.292 96.6511 369.339 101.78 369.339 108.894C369.372 111.935 369.024 114.968 368.301 117.921C367.724 120.362 366.725 122.682 365.35 124.779C364.181 126.575 362.583 128.052 360.702 129.078C358.828 130.073 356.734 130.583 354.612 130.56C353.384 130.587 352.156 130.492 350.947 130.277C349.912 130.038 348.918 129.648 347.996 129.118V145.529H342.297V89.775ZM348.037 123.351C348.785 123.987 349.631 124.496 350.543 124.86C351.733 125.274 352.99 125.462 354.248 125.413C355.662 125.405 357.045 124.998 358.238 124.237C359.43 123.476 360.382 122.394 360.985 121.115C362.629 118.249 363.451 114.162 363.451 108.854C363.466 106.824 363.317 104.796 363.006 102.791C362.791 101.183 362.337 99.6159 361.659 98.1421C361.095 96.9162 360.228 95.8542 359.139 95.0567C358.084 94.3169 356.817 93.9387 355.528 93.9788C351.648 93.9788 349.155 96.3502 348.037 101.066V123.351ZM375.173 109.689C375.173 102.503 376.408 97.2304 378.878 93.871C380.078 92.2184 381.671 90.891 383.513 90.0089C385.355 89.1267 387.388 88.7175 389.428 88.8184C394.314 88.8184 397.907 90.543 400.207 93.9923C402.506 97.4415 403.66 102.674 403.669 109.689C403.669 116.875 402.421 122.157 399.924 125.534C398.722 127.173 397.134 128.49 395.3 129.366C393.467 130.243 391.445 130.653 389.414 130.56C384.528 130.56 380.935 128.831 378.635 125.372C376.336 121.914 375.182 116.686 375.173 109.689ZM381.142 109.689C381.127 111.822 381.276 113.952 381.586 116.062C381.815 117.768 382.296 119.43 383.014 120.993C383.588 122.274 384.478 123.387 385.601 124.227C386.72 125.011 388.062 125.412 389.428 125.372C390.708 125.409 391.973 125.08 393.073 124.424C394.173 123.768 395.063 122.811 395.639 121.667C397.031 119.197 397.723 115.204 397.714 109.689C397.726 107.57 397.577 105.453 397.269 103.356C397.043 101.633 396.562 99.9529 395.841 98.3712C395.264 97.0969 394.374 95.9892 393.254 95.151C392.136 94.3643 390.795 93.9581 389.428 93.9923C388.148 93.9681 386.889 94.3088 385.796 94.9745C384.703 95.6402 383.822 96.6034 383.257 97.7514C381.847 100.249 381.142 104.232 381.142 109.703V109.689ZM440.331 139.708H436.289L435.332 129.603H411.754L410.716 139.708H406.809V124.416H410.568C411.087 123.373 411.538 122.297 411.915 121.195C412.617 119.06 413.162 116.876 413.546 114.661C414.085 111.872 414.543 108.436 414.893 104.353C415.243 100.271 415.513 95.3935 415.567 89.775H435.561V124.416H440.264L440.331 139.708ZM429.889 124.416V94.9489H420.983C420.875 97.2259 420.727 99.732 420.552 102.44C420.377 105.148 420.08 107.83 419.717 110.524C419.353 113.219 418.881 115.766 418.369 118.204C417.938 120.323 417.324 122.402 416.537 124.416H429.889ZM468.289 127.609C466.931 128.632 465.39 129.387 463.748 129.832C461.995 130.326 460.181 130.571 458.359 130.56C456.116 130.63 453.893 130.119 451.905 129.078C450.131 128.077 448.657 126.621 447.634 124.86C446.475 122.804 445.669 120.568 445.249 118.245C444.726 115.423 444.473 112.558 444.495 109.689C444.495 102.88 445.703 97.702 448.119 94.154C449.232 92.43 450.776 91.0262 452.598 90.0811C454.42 89.1359 456.456 88.6822 458.507 88.7645C460.319 88.7321 462.129 88.9176 463.896 89.3169C465.229 89.6293 466.516 90.114 467.723 90.7586L466.133 95.7708C464.029 94.553 461.638 93.9204 459.208 93.9384C457.878 93.8937 456.564 94.2254 455.415 94.8952C454.266 95.5651 453.329 96.5458 452.713 97.7245C451.258 100.244 450.517 104.219 450.517 109.635C450.508 111.689 450.67 113.739 451.002 115.766C451.258 117.498 451.795 119.178 452.592 120.737C453.264 122.071 454.248 123.222 455.462 124.092C456.757 124.949 458.289 125.378 459.841 125.318C461.164 125.334 462.478 125.092 463.708 124.604C464.76 124.205 465.743 123.641 466.618 122.934L468.289 127.609ZM483.339 111.683H480.388V129.603H474.662V89.775H480.388V107.776L483.083 106.657L492.811 89.775H498.941L489.51 105.782L486.734 108.476L490.157 111.67L500.343 129.67H493.498L483.339 111.683ZM525.323 106.657L525.794 100.608H525.471L522.695 107.345L509.222 129.657H505.476V89.775H511.256V113.435L510.785 119.242H511.108L513.722 112.707L527.344 89.802H531.089V129.63H525.363L525.323 106.657ZM564.275 126.868C562.861 128.098 561.204 129.016 559.411 129.563C557.403 130.203 555.307 130.526 553.2 130.519C550.945 130.573 548.713 130.064 546.705 129.037C544.858 128.04 543.295 126.589 542.165 124.82C540.894 122.808 540.003 120.579 539.537 118.245C538.955 115.417 538.675 112.536 538.702 109.649C538.702 102.84 539.951 97.6616 542.448 94.1135C543.602 92.382 545.183 90.9766 547.037 90.0327C548.892 89.0888 550.959 88.6382 553.038 88.7241C554.528 88.7268 556.012 88.9123 557.457 89.2765C558.944 89.6681 560.305 90.4388 561.405 91.5131C562.7 92.8399 563.669 94.4497 564.234 96.2154C565.025 98.7654 565.384 101.429 565.299 104.097C565.299 104.996 565.258 105.966 565.178 107.008C565.11 108.045 565.016 109.11 564.908 110.228H544.698C544.68 112.312 544.869 114.393 545.264 116.439C545.562 118.111 546.156 119.717 547.015 121.182C547.767 122.431 548.818 123.472 550.074 124.214C551.508 124.969 553.115 125.336 554.736 125.278C556.196 125.278 557.644 125.009 559.007 124.483C560.205 124.084 561.303 123.432 562.227 122.57L564.275 126.868ZM559.802 105.512C559.909 101.533 559.353 98.6137 558.131 96.7544C557.618 95.887 556.883 95.1716 556.002 94.6815C555.122 94.1914 554.126 93.9443 553.119 93.9653C551.996 93.9273 550.88 94.161 549.867 94.6466C548.853 95.1322 547.972 95.8552 547.298 96.7544C545.87 98.6137 545.021 101.533 544.752 105.512H559.802ZM609.358 94.922H595.965V129.576H590.239V89.775H615.084V129.603H609.358V94.922ZM624.488 89.7481H628.531L629.42 94.0462H629.824C630.702 92.3789 632.039 90.9979 633.677 90.0667C635.315 89.1355 637.185 88.6929 639.067 88.7915C640.911 88.6823 642.752 89.0577 644.407 89.8802C646.061 90.7027 647.472 91.9439 648.498 93.4803C650.6 96.6241 651.651 101.753 651.651 108.867C651.685 111.908 651.336 114.941 650.614 117.894C650.037 120.335 649.038 122.656 647.663 124.753C646.488 126.548 644.886 128.025 643.001 129.051C641.128 130.048 639.033 130.557 636.911 130.533C635.688 130.559 634.465 130.465 633.26 130.25C632.224 130.013 631.229 129.622 630.309 129.091V145.502H624.569L624.488 89.7481ZM630.255 123.351C631.003 123.987 631.85 124.496 632.761 124.86C633.951 125.275 635.208 125.463 636.466 125.413C637.881 125.408 639.266 125.002 640.458 124.241C641.651 123.48 642.603 122.396 643.203 121.115C644.847 118.245 645.682 114.162 645.682 108.854C645.698 106.824 645.549 104.796 645.238 102.791C645.016 101.184 644.562 99.6182 643.89 98.1421C643.336 96.9482 642.499 95.9075 641.452 95.1106C640.392 94.3689 639.12 93.9907 637.827 94.0327C633.96 94.0327 631.454 96.4041 630.349 101.12L630.255 123.351ZM657.418 109.729C657.418 102.544 658.653 97.2709 661.123 93.9114C662.323 92.2589 663.916 90.9315 665.758 90.0493C667.6 89.1671 669.633 88.7579 671.673 88.8588C676.55 88.8588 680.143 90.5834 682.452 94.0327C684.76 97.4819 685.915 102.714 685.915 109.729C685.915 116.915 684.666 122.197 682.169 125.574C680.967 127.213 679.379 128.53 677.545 129.407C675.712 130.284 673.69 130.694 671.66 130.6C666.773 130.6 663.18 128.871 660.881 125.413C658.581 121.955 657.427 116.727 657.418 109.729ZM663.387 109.729C663.375 111.861 663.519 113.991 663.818 116.102C664.057 117.807 664.542 119.469 665.26 121.034C665.833 122.314 666.723 123.427 667.846 124.267C668.965 125.051 670.307 125.453 671.673 125.413C672.953 125.45 674.218 125.121 675.318 124.464C676.418 123.808 677.308 122.852 677.884 121.707C679.232 119.242 679.959 115.254 679.959 109.729C679.971 107.61 679.823 105.493 679.515 103.397C679.283 101.675 678.802 99.9952 678.086 98.4116C677.5 97.1392 676.606 96.0326 675.486 95.1914C674.374 94.4031 673.036 93.9966 671.673 94.0327C670.393 94.0047 669.131 94.3422 668.036 95.0056C666.94 95.669 666.057 96.6308 665.489 97.7784C664.087 100.275 663.387 104.259 663.387 109.729ZM717.402 126.895C715.995 128.128 714.342 129.046 712.552 129.59C710.54 130.232 708.439 130.555 706.327 130.546C704.073 130.6 701.841 130.091 699.833 129.064C697.99 128.067 696.431 126.615 695.306 124.847C694.011 122.839 693.097 120.61 692.611 118.272C692.022 115.445 691.742 112.563 691.776 109.676C691.776 102.867 693.02 97.6885 695.508 94.1405C696.668 92.4115 698.252 91.0085 700.108 90.0651C701.964 89.1217 704.031 88.6693 706.112 88.751C707.602 88.7537 709.086 88.9393 710.531 89.3035C712.015 89.6926 713.372 90.4637 714.465 91.5401C715.765 92.8634 716.734 94.4744 717.295 96.2424C718.097 98.7899 718.461 101.455 718.373 104.124C718.373 105.023 718.332 105.993 718.251 107.035C718.17 108.072 718.076 109.137 717.982 110.255H697.771C697.756 112.338 697.941 114.418 698.324 116.466C698.629 118.137 699.222 119.741 700.075 121.209C700.829 122.461 701.885 123.504 703.147 124.241C704.582 124.996 706.189 125.363 707.809 125.305C709.265 125.305 710.709 125.036 712.067 124.51C713.265 124.111 714.364 123.459 715.287 122.597L717.402 126.895ZM712.943 105.539C713.05 101.56 712.494 98.6407 711.272 96.7813C710.757 95.9158 710.022 95.202 709.141 94.7122C708.261 94.2223 707.267 93.974 706.26 93.9923C705.136 93.952 704.02 94.1847 703.006 94.6704C701.992 95.1562 701.112 95.8805 700.439 96.7813C699.011 98.6407 698.149 101.564 697.893 105.539H712.943ZM735.174 111.683H732.223V129.603H726.484V89.775H732.223V107.776L734.918 106.657L744.633 89.775H750.763L741.332 105.782L738.543 108.476L741.965 111.67L752.164 129.67H745.32L735.174 111.683ZM778.034 94.9489H768.238V129.603H762.499V94.9489H752.703V89.775H778.034V94.9489ZM788.557 124.416C789.996 124.723 791.463 124.886 792.936 124.901C795.482 124.901 797.261 124.227 798.325 122.866C799.442 121.129 799.971 119.079 799.834 117.019C799.948 115.038 799.434 113.072 798.365 111.4C797.382 110.053 795.671 109.366 793.138 109.366C792.395 109.369 791.653 109.409 790.914 109.487C790.135 109.565 789.363 109.714 788.61 109.932L788.557 124.416ZM788.557 104.987C789.53 104.764 790.515 104.597 791.507 104.488C792.464 104.421 793.367 104.38 794.202 104.38C796.075 104.325 797.942 104.632 799.699 105.283C801.07 105.819 802.287 106.684 803.243 107.803C804.143 108.909 804.783 110.203 805.116 111.589C805.501 113.108 805.691 114.67 805.682 116.237C805.682 121.07 804.604 124.577 802.448 126.76C800.306 128.929 796.722 130.021 791.736 130.021C788.73 130.022 785.726 129.865 782.736 129.549V89.775H788.476L788.557 104.987ZM810.532 89.775H816.272V129.603H810.505L810.532 89.775Z" fill="white"/>
<path d="M301.068 173.783L301.284 170.306H301.068L299.721 173.863L289.952 191.056H288.066V164.647H290.895V182.163L290.626 185.559H290.774L292.121 182.015L301.93 164.621H303.79V191.029H301.068V173.783ZM316.724 174.645H312.601C312.601 176.787 312.426 178.849 312.305 180.856C312.207 182.634 311.986 184.404 311.645 186.151C311.42 187.448 310.963 188.694 310.297 189.83C310.063 190.235 309.728 190.572 309.324 190.809C308.92 191.045 308.461 191.172 307.993 191.177C307.624 191.179 307.255 191.156 306.889 191.11C306.603 191.059 306.327 190.968 306.067 190.84L306.484 188.469C306.951 188.617 307.456 188.583 307.899 188.375C308.317 188.159 308.667 187.499 308.977 186.407C309.358 184.76 309.601 183.083 309.705 181.395C309.893 179.15 310.028 176.073 310.109 172.166H319.419V191.029H316.724V174.645ZM326.6 188.604C327.283 188.747 327.978 188.824 328.675 188.833C331.047 188.833 332.219 187.593 332.219 185.1C332.277 184.133 331.985 183.176 331.397 182.406C331.047 182.057 330.623 181.79 330.157 181.625C329.691 181.459 329.194 181.399 328.702 181.449C328.348 181.43 327.992 181.43 327.638 181.449C327.268 181.486 326.903 181.558 326.547 181.665L326.6 188.604ZM326.6 179.401C327.072 179.304 327.549 179.237 328.029 179.199C328.487 179.199 328.918 179.199 329.376 179.199C330.295 179.171 331.21 179.322 332.071 179.644C332.749 179.893 333.358 180.299 333.849 180.829C334.313 181.341 334.65 181.955 334.833 182.621C335.036 183.336 335.136 184.075 335.129 184.817C335.214 185.718 335.11 186.626 334.825 187.484C334.54 188.343 334.079 189.132 333.472 189.803C331.992 190.96 330.129 191.514 328.258 191.352C326.826 191.353 325.396 191.276 323.973 191.123V172.26H326.668L326.6 179.401ZM347.498 180.196L347.727 177.326H347.579L346.231 180.492L339.858 191.056H338.08V172.193H340.775V183.403L340.546 186.098H340.694L341.933 183.012L348.387 172.139H350.166V191.002H347.471L347.498 180.196ZM375.941 170.643C375.945 171.306 375.868 171.966 375.712 172.61C375.571 173.259 375.33 173.882 374.998 174.456C374.675 175.035 374.261 175.559 373.772 176.006C373.26 176.479 372.647 176.829 371.98 177.03V177.245C372.585 177.371 373.169 177.58 373.718 177.865C374.285 178.164 374.785 178.577 375.186 179.078C375.638 179.635 375.985 180.27 376.21 180.951C376.483 181.822 376.61 182.732 376.588 183.645C376.616 184.854 376.396 186.055 375.941 187.175C375.558 188.112 374.958 188.943 374.189 189.601C373.438 190.221 372.566 190.68 371.629 190.948C370.634 191.253 369.598 191.407 368.557 191.406H367.318C366.86 191.406 366.361 191.406 365.836 191.406C365.31 191.406 364.785 191.312 364.273 191.244C363.794 191.192 363.32 191.097 362.858 190.961V164.877C363.749 164.705 364.649 164.579 365.553 164.499C366.65 164.393 367.751 164.343 368.854 164.351C369.713 164.352 370.57 164.433 371.414 164.594C372.238 164.74 373.023 165.057 373.718 165.523C374.426 165.997 374.994 166.654 375.361 167.423C375.816 168.433 376.029 169.536 375.981 170.643H375.941ZM368.773 188.752C369.415 188.756 370.053 188.652 370.659 188.442C371.233 188.229 371.757 187.899 372.195 187.472C372.645 187.028 372.998 186.496 373.233 185.909C373.494 185.216 373.622 184.48 373.61 183.74C373.643 182.879 373.482 182.023 373.138 181.234C372.861 180.64 372.44 180.126 371.912 179.738C371.394 179.381 370.806 179.138 370.188 179.024C369.535 178.898 368.872 178.835 368.207 178.835H365.687V188.496C365.874 188.56 366.069 188.596 366.267 188.604L367.062 188.684H367.951L368.773 188.752ZM367.237 176.383H368.436C368.815 176.368 369.193 176.332 369.568 176.275C370.514 175.885 371.341 175.253 371.966 174.443C372.645 173.55 372.997 172.452 372.963 171.33C372.985 170.619 372.871 169.91 372.626 169.242C372.429 168.725 372.111 168.262 371.697 167.895C371.301 167.57 370.842 167.332 370.349 167.194C369.808 167.057 369.251 166.989 368.692 166.992C368.032 166.992 367.452 166.992 366.913 166.992C366.512 167.015 366.111 167.06 365.714 167.127V176.37L367.237 176.383ZM380.252 173.325C381.09 172.835 381.999 172.48 382.947 172.274C384.028 172.015 385.137 171.888 386.248 171.896C387.121 171.864 387.991 172.025 388.795 172.368C389.41 172.672 389.932 173.138 390.304 173.715C390.675 174.27 390.919 174.901 391.018 175.561C391.132 176.279 391.19 177.004 391.193 177.73C391.193 179.239 391.193 180.722 391.099 182.15C391.004 183.578 391.004 184.939 391.004 186.192C391.004 187.148 391.004 188.038 391.099 188.887C391.15 189.668 391.267 190.443 391.449 191.204H389.374L388.741 188.981H388.592C388.176 189.67 387.604 190.251 386.922 190.679C386.031 191.192 385.012 191.44 383.985 191.393C383.363 191.421 382.743 191.316 382.167 191.083C381.59 190.851 381.07 190.497 380.643 190.045C379.71 188.963 379.228 187.565 379.296 186.138C379.268 185.21 379.452 184.289 379.835 183.443C380.184 182.727 380.719 182.117 381.384 181.678C382.101 181.198 382.908 180.868 383.755 180.708C384.772 180.515 385.806 180.425 386.841 180.439H387.595C387.838 180.439 388.107 180.439 388.377 180.439C388.453 179.749 388.493 179.057 388.498 178.364C388.59 177.316 388.365 176.264 387.851 175.346C387.559 175.023 387.193 174.776 386.785 174.626C386.377 174.476 385.938 174.427 385.507 174.483C384.734 174.495 383.965 174.599 383.217 174.793C382.49 174.97 381.792 175.246 381.142 175.615L380.252 173.325ZM388.431 182.46C388.179 182.446 387.928 182.446 387.676 182.46H386.922C386.326 182.461 385.731 182.511 385.143 182.608C384.604 182.699 384.085 182.881 383.607 183.147C383.163 183.38 382.791 183.729 382.529 184.157C382.243 184.652 382.103 185.217 382.125 185.788C382.078 186.629 382.342 187.459 382.866 188.119C383.102 188.389 383.394 188.604 383.723 188.748C384.051 188.893 384.407 188.963 384.766 188.954C385.652 189.007 386.527 188.739 387.232 188.199C387.763 187.755 388.175 187.186 388.431 186.542V182.46ZM395.531 172.193H397.445L397.862 174.241H398.011C398.424 173.448 399.056 172.792 399.833 172.35C400.61 171.908 401.497 171.699 402.389 171.748C403.264 171.698 404.137 171.877 404.921 172.266C405.705 172.656 406.375 173.244 406.863 173.971C407.86 175.453 408.358 177.879 408.358 181.247C408.371 182.69 408.204 184.13 407.86 185.532C407.601 186.684 407.145 187.782 406.512 188.779C405.954 189.623 405.201 190.321 404.316 190.813C403.429 191.286 402.438 191.527 401.433 191.514C400.846 191.529 400.259 191.484 399.681 191.379C399.206 191.266 398.752 191.08 398.334 190.827V198.601H395.639L395.531 172.193ZM398.226 188.078C398.581 188.377 398.982 188.618 399.412 188.792C399.974 188.989 400.568 189.081 401.163 189.062C401.831 189.055 402.483 188.861 403.045 188.501C403.608 188.141 404.057 187.63 404.343 187.027C405.21 185.219 405.608 183.222 405.502 181.22C405.509 180.255 405.441 179.291 405.3 178.337C405.187 177.577 404.964 176.837 404.64 176.14C404.378 175.572 403.98 175.076 403.481 174.699C402.98 174.351 402.379 174.176 401.77 174.2C399.937 174.2 398.752 175.319 398.226 177.555V188.078ZM420.107 174.604H415.998C415.917 176.747 415.823 178.808 415.701 180.816C415.599 182.594 415.374 184.364 415.028 186.111C414.803 187.408 414.346 188.654 413.68 189.789C413.446 190.195 413.111 190.532 412.707 190.768C412.303 191.004 411.844 191.131 411.376 191.137C411.011 191.138 410.647 191.116 410.285 191.069C409.996 191.016 409.715 190.926 409.45 190.8L409.867 188.428C410.313 188.559 410.791 188.526 411.215 188.334C411.632 188.119 411.996 187.458 412.293 186.367C412.68 184.72 412.928 183.043 413.034 181.355C413.222 179.105 413.344 176.033 413.424 172.125H422.748V190.988H420.053L420.107 174.604ZM427.087 173.257C427.925 172.77 428.834 172.416 429.781 172.206C430.863 171.948 431.971 171.822 433.082 171.829C433.956 171.794 434.826 171.955 435.629 172.301C436.247 172.602 436.769 173.068 437.138 173.648C437.509 174.203 437.753 174.833 437.852 175.494C437.973 176.21 438.031 176.936 438.027 177.663C438.027 179.172 438.027 180.654 437.933 182.082C437.839 183.511 437.839 184.871 437.839 186.124C437.839 187.081 437.839 187.97 437.933 188.819C437.995 189.6 438.117 190.374 438.297 191.137H436.222L435.575 188.913H435.427C435.012 189.599 434.445 190.18 433.77 190.611C432.875 191.127 431.85 191.375 430.819 191.325C430.2 191.354 429.582 191.248 429.007 191.016C428.433 190.783 427.916 190.429 427.491 189.978C426.553 188.899 426.07 187.498 426.143 186.071C426.113 185.141 426.302 184.218 426.696 183.376C427.045 182.663 427.574 182.055 428.232 181.611C428.955 181.132 429.765 180.803 430.617 180.641C431.629 180.448 432.658 180.358 433.689 180.371H434.457C434.699 180.371 434.969 180.371 435.252 180.371C435.319 179.59 435.359 178.903 435.359 178.296C435.452 177.248 435.226 176.196 434.713 175.278C434.422 174.958 434.058 174.712 433.653 174.562C433.247 174.412 432.811 174.362 432.382 174.416C431.604 174.428 430.831 174.532 430.078 174.726C429.351 174.902 428.653 175.179 428.003 175.548L427.087 173.257ZM435.265 182.392C435.014 182.378 434.762 182.378 434.511 182.392H433.756C433.165 182.394 432.574 182.444 431.991 182.54C431.448 182.634 430.925 182.816 430.442 183.079C430 183.316 429.629 183.665 429.364 184.09C429.088 184.588 428.953 185.151 428.973 185.72C428.919 186.563 429.184 187.394 429.714 188.051C429.948 188.323 430.241 188.539 430.569 188.684C430.898 188.828 431.255 188.897 431.614 188.887C432.496 188.94 433.367 188.672 434.066 188.132C434.601 187.692 435.014 187.121 435.265 186.475V182.392ZM454.883 179.792L455.152 176.208H455.004L453.872 179.415L450.315 186.677H449.345L445.68 179.442L444.67 176.235H444.481L444.777 179.778V191.015H442.325V172.152H445.02L449.129 180.344L449.951 182.796H450.032L450.935 180.263L454.748 172.179H457.537V191.042H454.842L454.883 179.792ZM461.229 181.557C461.229 178.162 461.813 175.664 462.98 174.066C463.552 173.286 464.307 172.66 465.179 172.244C466.052 171.828 467.014 171.634 467.979 171.681C468.97 171.607 469.963 171.795 470.859 172.226C471.755 172.656 472.523 173.314 473.086 174.133C474.34 176.397 474.911 178.975 474.729 181.557C474.729 184.979 474.15 187.485 472.964 189.062C472.393 189.839 471.64 190.463 470.77 190.879C469.901 191.295 468.942 191.49 467.979 191.447C466.988 191.517 465.996 191.328 465.1 190.898C464.205 190.468 463.437 189.812 462.872 188.994C461.621 186.725 461.05 184.143 461.229 181.557ZM464.058 181.557C464.051 182.567 464.119 183.575 464.26 184.575C464.374 185.386 464.606 186.175 464.947 186.919C465.219 187.524 465.641 188.048 466.174 188.442C466.7 188.816 467.333 189.01 467.979 188.994C468.585 189.013 469.183 188.857 469.703 188.547C470.224 188.237 470.644 187.784 470.916 187.243C471.694 185.453 472.031 183.504 471.9 181.557C471.905 180.556 471.838 179.557 471.698 178.566C471.592 177.751 471.365 176.956 471.024 176.208C470.747 175.599 470.321 175.071 469.784 174.672C469.256 174.302 468.623 174.113 467.979 174.133C467.374 174.119 466.778 174.277 466.26 174.59C465.742 174.902 465.324 175.356 465.055 175.898C464.274 177.677 463.932 179.618 464.058 181.557ZM478.354 172.125L480.658 171.937C481.493 171.856 482.477 171.829 483.635 171.829C485.184 171.686 486.734 172.092 488.014 172.974C488.482 173.421 488.845 173.965 489.078 174.568C489.311 175.172 489.408 175.819 489.362 176.464C489.357 177.355 489.14 178.233 488.728 179.024C488.283 179.888 487.542 180.562 486.64 180.924V181.072C487.661 181.232 488.582 181.777 489.213 182.594C489.759 183.508 490.021 184.563 489.968 185.626C490.041 186.425 489.922 187.23 489.619 187.973C489.317 188.716 488.84 189.376 488.23 189.897C486.695 190.89 484.881 191.362 483.056 191.244C482.207 191.244 481.385 191.244 480.604 191.15L478.381 190.935L478.354 172.125ZM481.048 188.617L482.113 188.725C482.463 188.725 482.881 188.725 483.379 188.725C484.383 188.808 485.383 188.526 486.195 187.93C486.749 187.257 487.062 186.417 487.084 185.546C487.106 184.674 486.836 183.82 486.317 183.12C485.956 182.79 485.529 182.54 485.064 182.386C484.6 182.233 484.108 182.18 483.622 182.231H481.102L481.048 188.617ZM483.837 180.129C484.19 180.13 484.538 180.042 484.848 179.873C485.185 179.713 485.487 179.489 485.737 179.212C486.006 178.936 486.22 178.611 486.37 178.256C486.516 177.892 486.589 177.503 486.586 177.111C486.621 176.723 486.577 176.331 486.456 175.961C486.336 175.59 486.142 175.248 485.885 174.955C485.203 174.439 484.352 174.199 483.501 174.281C482.894 174.281 482.409 174.281 482.059 174.281L481.048 174.349V180.088L483.837 180.129ZM493.336 173.217C494.176 172.731 495.084 172.376 496.031 172.166C497.112 171.907 498.221 171.781 499.332 171.789C500.205 171.756 501.075 171.917 501.879 172.26C502.494 172.565 503.016 173.03 503.388 173.607C503.759 174.163 504.003 174.793 504.102 175.453C504.216 176.171 504.274 176.896 504.277 177.623C504.277 179.132 504.277 180.614 504.183 182.042C504.088 183.47 504.088 184.831 504.088 186.084C504.088 187.041 504.088 187.93 504.183 188.779C504.234 189.56 504.351 190.335 504.533 191.096H502.458L501.825 188.873H501.663C501.248 189.559 500.681 190.14 500.006 190.571C499.115 191.084 498.096 191.332 497.069 191.285C496.447 191.314 495.827 191.208 495.251 190.976C494.674 190.743 494.154 190.389 493.727 189.937C492.795 188.855 492.313 187.457 492.38 186.03C492.355 185.101 492.544 184.18 492.932 183.335C493.282 182.619 493.817 182.01 494.482 181.57C495.198 181.09 496.005 180.76 496.853 180.6C497.865 180.407 498.894 180.317 499.925 180.331H500.679C500.935 180.331 501.205 180.331 501.474 180.331C501.55 179.642 501.591 178.949 501.596 178.256C501.688 177.208 501.463 176.156 500.949 175.238C500.657 174.915 500.291 174.669 499.883 174.519C499.474 174.368 499.036 174.319 498.604 174.375C497.831 174.387 497.062 174.491 496.314 174.685C495.588 174.862 494.889 175.139 494.239 175.507L493.336 173.217ZM501.528 182.352C501.277 182.338 501.025 182.338 500.774 182.352H500.019C499.423 182.353 498.829 182.403 498.241 182.5C497.702 182.591 497.182 182.773 496.705 183.039C496.258 183.269 495.885 183.619 495.627 184.05C495.345 184.545 495.21 185.11 495.236 185.68C495.177 186.521 495.437 187.353 495.964 188.011C496.198 188.283 496.49 188.499 496.819 188.643C497.148 188.788 497.505 188.857 497.863 188.846C498.745 188.901 499.617 188.633 500.316 188.092C500.851 187.648 501.267 187.079 501.528 186.434V182.352ZM526.01 180.088L526.239 177.218H526.077L524.73 180.385L518.343 190.948H516.646V172.085H519.34V183.295L519.111 185.99H519.26L520.499 182.904L526.953 172.031H528.772V190.894H526.077L526.01 180.088ZM557.74 173.594L558.077 169.552H557.929L556.716 173.298L551.327 184.764H550.384L544.806 173.298L543.633 169.552H543.593L544.118 173.594V190.948H541.424V164.54H543.795L550.168 177.515L551.111 180.614H551.192L552.095 177.488L558.131 164.54H560.624V190.948H557.794L557.74 173.594ZM565.016 173.217C565.855 172.73 566.764 172.375 567.711 172.166C568.792 171.909 569.9 171.782 571.012 171.789C571.885 171.753 572.755 171.915 573.558 172.26C574.176 172.561 574.698 173.028 575.067 173.607C575.443 174.162 575.691 174.792 575.795 175.453C575.904 176.171 575.958 176.896 575.956 177.623C575.956 179.132 575.957 180.614 575.862 182.042C575.768 183.47 575.768 184.831 575.768 186.084C575.768 187.041 575.768 187.93 575.862 188.779C575.924 189.559 576.046 190.334 576.226 191.096H574.151L573.504 188.873H573.356C572.941 189.559 572.374 190.14 571.699 190.571C570.808 191.084 569.789 191.332 568.762 191.285C568.141 191.314 567.521 191.208 566.944 190.976C566.367 190.743 565.848 190.389 565.42 189.937C564.482 188.858 563.999 187.458 564.073 186.03C564.049 185.101 564.237 184.18 564.625 183.335C564.975 182.619 565.51 182.01 566.175 181.57C566.891 181.09 567.698 180.76 568.546 180.6C569.558 180.407 570.588 180.317 571.618 180.331H572.372C572.629 180.331 572.885 180.331 573.167 180.331C573.239 179.641 573.275 178.949 573.275 178.256C573.37 177.209 573.149 176.158 572.642 175.238C572.35 174.915 571.984 174.669 571.576 174.519C571.168 174.368 570.729 174.319 570.298 174.375C569.52 174.388 568.747 174.492 567.994 174.685C567.269 174.867 566.571 175.144 565.919 175.507L565.016 173.217ZM573.208 182.352C572.957 182.339 572.705 182.339 572.453 182.352H571.699C571.103 182.353 570.508 182.403 569.92 182.5C569.378 182.593 568.854 182.775 568.371 183.039C567.93 183.276 567.558 183.624 567.293 184.05C567.017 184.547 566.882 185.111 566.902 185.68C566.848 186.522 567.113 187.354 567.643 188.011C567.878 188.283 568.17 188.499 568.499 188.643C568.827 188.788 569.184 188.857 569.543 188.846C570.425 188.9 571.296 188.631 571.995 188.092C572.53 187.648 572.947 187.079 573.208 186.434V182.352ZM584.404 182.46H583.057V190.948H580.362V172.085H583.057V180.614L584.337 180.088L588.945 172.085H591.842L587.355 179.671L586.008 180.924L587.625 182.419L592.462 190.948H589.215L584.404 182.46ZM605.006 190.005C604.365 190.491 603.638 190.853 602.863 191.069C602.037 191.291 601.186 191.405 600.33 191.406C599.267 191.442 598.213 191.201 597.272 190.705C596.432 190.233 595.734 189.545 595.251 188.711C594.7 187.736 594.318 186.674 594.119 185.572C593.878 184.238 593.76 182.885 593.769 181.53C593.603 178.963 594.199 176.404 595.48 174.173C596.011 173.363 596.744 172.705 597.606 172.264C598.468 171.822 599.43 171.612 600.398 171.654C601.249 171.637 602.1 171.723 602.931 171.91C603.561 172.057 604.168 172.288 604.736 172.597L603.995 174.968C602.995 174.394 601.861 174.096 600.708 174.106C600.078 174.084 599.456 174.24 598.912 174.557C598.368 174.874 597.926 175.339 597.636 175.898C596.822 177.658 596.465 179.595 596.598 181.53C596.589 182.505 596.665 183.479 596.827 184.44C596.946 185.263 597.201 186.06 597.582 186.798C597.899 187.423 598.361 187.963 598.929 188.375C599.542 188.784 600.267 188.991 601.004 188.967C602.171 188.971 603.304 188.571 604.211 187.836L605.006 190.005ZM617.415 180.088L617.644 177.218H617.496L616.148 180.385L609.775 190.948H607.997V172.085H610.691V183.295L610.462 185.99H610.611L611.85 182.904L618.304 172.031H620.083V190.894H617.388L617.415 180.088ZM637.113 179.751L637.369 176.167H637.221L636.089 179.374L632.519 186.677H631.535L627.87 179.442L626.86 176.235H626.671L626.968 179.778V191.015H624.569V172.152H627.264L631.373 180.344L632.209 182.796L633.112 180.263L636.925 172.179H639.714V191.042H637.019L637.113 179.751ZM644.093 173.217C644.931 172.73 645.84 172.375 646.787 172.166C647.854 171.935 648.944 171.831 650.034 171.856C650.908 171.822 651.778 171.983 652.581 172.327C653.199 172.629 653.721 173.095 654.09 173.675C654.461 174.23 654.705 174.86 654.804 175.521C654.925 176.237 654.983 176.963 654.979 177.69C654.979 179.199 654.979 180.681 654.885 182.109C654.791 183.538 654.791 184.898 654.791 186.151C654.791 187.108 654.791 187.997 654.885 188.846C654.941 189.627 655.062 190.403 655.249 191.164H653.174L652.527 188.94H652.379C651.963 189.629 651.39 190.211 650.708 190.638C649.817 191.151 648.798 191.399 647.771 191.352C647.15 191.379 646.531 191.273 645.954 191.041C645.378 190.808 644.858 190.455 644.429 190.005C643.497 188.923 643.014 187.524 643.082 186.098C643.054 185.17 643.238 184.248 643.621 183.403C643.975 182.689 644.509 182.081 645.17 181.638C645.891 181.155 646.702 180.825 647.555 180.668C648.568 180.475 649.597 180.385 650.627 180.398H651.382C651.624 180.398 651.894 180.398 652.177 180.398C652.177 179.617 652.284 178.93 652.284 178.323C652.377 177.275 652.151 176.223 651.638 175.305C651.347 174.985 650.983 174.739 650.578 174.589C650.172 174.439 649.736 174.389 649.307 174.443C648.529 174.454 647.756 174.558 647.003 174.753C646.277 174.929 645.578 175.206 644.928 175.575L644.093 173.217ZM652.271 182.352C652.02 182.338 651.768 182.338 651.516 182.352H650.762C650.171 182.353 649.58 182.403 648.997 182.5C648.454 182.593 647.931 182.775 647.447 183.039C647.004 183.272 646.631 183.621 646.37 184.05C646.088 184.545 645.953 185.11 645.979 185.68C645.926 186.52 646.186 187.35 646.706 188.011C646.945 188.281 647.24 188.497 647.57 188.641C647.901 188.785 648.259 188.855 648.62 188.846C649.501 188.9 650.373 188.631 651.072 188.092C651.607 187.651 652.02 187.08 652.271 186.434V182.352ZM671.74 178.727H670.393V190.948H667.55V164.54H670.38V176.841L671.727 176.316L678.598 164.54H681.846L674.934 175.938L673.586 177.138L675.136 178.647L682.789 190.948H679.205L671.74 178.727ZM685.78 173.217C686.619 172.73 687.528 172.375 688.475 172.166C689.556 171.907 690.664 171.781 691.776 171.789C692.649 171.756 693.518 171.917 694.322 172.26C694.94 172.561 695.462 173.028 695.831 173.607C696.202 174.163 696.446 174.793 696.545 175.453C696.666 176.17 696.725 176.896 696.72 177.623C696.72 179.132 696.72 180.614 696.626 182.042C696.532 183.47 696.532 184.831 696.532 186.084C696.532 187.041 696.532 187.93 696.626 188.779C696.677 189.56 696.795 190.335 696.977 191.096H694.915L694.268 188.873H694.12C693.7 189.559 693.129 190.14 692.449 190.571C691.558 191.084 690.539 191.332 689.512 191.285C688.891 191.312 688.272 191.206 687.695 190.973C687.119 190.741 686.599 190.388 686.171 189.937C685.239 188.855 684.757 187.457 684.823 186.03C684.799 185.101 684.988 184.18 685.376 183.335C685.729 182.622 686.264 182.014 686.925 181.57C687.642 181.09 688.449 180.76 689.297 180.6C690.309 180.409 691.338 180.318 692.368 180.331H693.15C693.392 180.331 693.662 180.331 693.931 180.331C694.007 179.642 694.048 178.949 694.053 178.256C694.145 177.208 693.92 176.156 693.406 175.238C693.115 174.917 692.752 174.672 692.346 174.522C691.94 174.372 691.504 174.322 691.075 174.375C690.297 174.387 689.524 174.491 688.771 174.685C688.045 174.862 687.346 175.139 686.696 175.507L685.78 173.217ZM693.958 182.352C693.707 182.338 693.455 182.338 693.204 182.352H692.449C691.858 182.353 691.268 182.403 690.684 182.5C690.142 182.593 689.618 182.775 689.135 183.039C688.691 183.272 688.318 183.621 688.057 184.05C687.775 184.545 687.64 185.11 687.666 185.68C687.614 186.52 687.873 187.35 688.394 188.011C688.632 188.281 688.927 188.497 689.258 188.641C689.588 188.785 689.946 188.855 690.307 188.846C691.189 188.9 692.06 188.631 692.759 188.092C693.291 187.647 693.703 187.078 693.958 186.434V182.352ZM714.896 195.745H713.01L712.565 190.948H701.059V172.085H703.754V188.496H709.978V172.193H712.673V188.604H714.856L714.896 195.745ZM717.591 173.217C718.429 172.729 719.338 172.374 720.286 172.166C721.367 171.907 722.475 171.781 723.587 171.789C724.46 171.756 725.33 171.917 726.133 172.26C726.749 172.565 727.27 173.03 727.642 173.607C728.008 174.165 728.252 174.794 728.357 175.453C728.466 176.171 728.52 176.896 728.518 177.623C728.518 179.132 728.518 180.614 728.424 182.042C728.33 183.47 728.33 184.831 728.33 186.084C728.33 187.041 728.33 187.93 728.424 188.779C728.486 189.559 728.608 190.334 728.788 191.096H726.713L726.066 188.873H725.918C725.503 189.559 724.936 190.14 724.261 190.571C723.366 191.087 722.341 191.334 721.31 191.285C720.691 191.312 720.074 191.205 719.499 190.973C718.925 190.74 718.408 190.387 717.982 189.937C717.044 188.858 716.561 187.458 716.634 186.03C716.61 185.101 716.799 184.18 717.187 183.335C717.536 182.619 718.071 182.01 718.736 181.57C719.453 181.09 720.26 180.76 721.108 180.6C722.12 180.407 723.149 180.317 724.18 180.331H724.934C725.19 180.331 725.446 180.331 725.729 180.331C725.801 179.641 725.837 178.949 725.837 178.256C725.932 177.209 725.711 176.158 725.204 175.238C724.911 174.915 724.546 174.669 724.137 174.519C723.729 174.368 723.291 174.319 722.859 174.375C722.082 174.388 721.308 174.492 720.555 174.685C719.83 174.865 719.132 175.141 718.48 175.507L717.591 173.217ZM725.783 182.352C725.532 182.339 725.28 182.339 725.028 182.352H724.274C723.678 182.353 723.083 182.403 722.496 182.5C721.953 182.593 721.429 182.775 720.946 183.039C720.505 183.271 720.136 183.621 719.882 184.05C719.595 184.544 719.455 185.109 719.477 185.68C719.386 186.511 719.607 187.347 720.097 188.024C720.332 188.296 720.624 188.512 720.953 188.657C721.281 188.801 721.638 188.871 721.997 188.86C722.879 188.914 723.75 188.646 724.449 188.105C724.984 187.661 725.401 187.092 725.662 186.448L725.783 182.352Z" fill="white"/>
<path d="M64.4182 87.7078V87.3979C64.4182 81.8602 64.4182 79.4215 70.6969 78.0337L90.1933 73.7087C90.3447 73.4523 90.5769 73.2533 90.8535 73.1428C92.9958 72.2805 99.0993 68.7369 103.114 69.222C110.431 70.0977 109.339 72.7655 103.6 74.7192C99.0589 76.2687 92.8206 75.5141 91.5945 75.5546H91.3789C91.2043 75.5505 91.0315 75.5187 90.8669 75.4602L71.1416 79.8392C66.4258 80.8901 66.4123 82.8842 66.3854 87.4113V87.7078H67.7328C67.9793 87.7078 68.2158 87.8057 68.3901 87.9801C68.5645 88.1544 68.6624 88.3909 68.6624 88.6374C68.6624 88.884 68.5645 89.1205 68.3901 89.2948C68.2158 89.4692 67.9793 89.5671 67.7328 89.5671H67.3959V123.022H67.7328C67.9842 123.015 68.2285 123.107 68.4126 123.278C68.5967 123.45 68.7058 123.687 68.7163 123.938C68.7127 124.16 68.6311 124.374 68.4857 124.541C68.3403 124.709 68.1405 124.82 67.9214 124.854C67.9214 139.172 67.9214 153.495 67.9214 167.822C67.9214 172.632 70.2658 176.539 73.1491 176.539H73.5668V177.887C73.5651 177.943 73.5522 177.999 73.5289 178.051C73.5056 178.102 73.4724 178.149 73.4311 178.188C73.3898 178.226 73.3413 178.257 73.2883 178.277C73.2353 178.297 73.1788 178.306 73.1222 178.304H58.5438C58.4871 178.306 58.4307 178.297 58.3777 178.277C58.3247 178.257 58.2762 178.226 58.2349 178.188C58.1936 178.149 58.1603 178.102 58.137 178.051C58.1137 177.999 58.1009 177.943 58.0991 177.887V176.539C60.7938 176.297 63.0574 172.497 63.0574 167.835C63.0574 153.526 62.9496 139.19 62.9362 124.868C62.6932 124.843 62.47 124.722 62.3159 124.533C62.1618 124.343 62.0892 124.1 62.1143 123.857C62.1393 123.614 62.2598 123.391 62.4493 123.237C62.6388 123.083 62.8818 123.011 63.1248 123.036H63.4616V89.5671H63.1248C62.8782 89.5671 62.6417 89.4692 62.4674 89.2948C62.293 89.1205 62.1951 88.884 62.1951 88.6374C62.1951 88.3909 62.293 88.1544 62.4674 87.9801C62.6417 87.8057 62.8782 87.7078 63.1248 87.7078H64.4182Z" fill="#BD7ABD"/>
<path d="M159.404 114.782C156.18 114.777 153.012 115.633 150.229 117.261V107.008C150.229 104.313 147.871 101.51 146.443 99.3412C147.94 98.6774 149.166 97.5237 149.92 96.07C150.674 94.6163 150.91 92.9492 150.59 91.3432C150.27 89.7372 149.413 88.288 148.16 87.2341C146.906 86.1803 145.331 85.5847 143.694 85.5453C142.057 85.5059 140.456 86.025 139.153 87.0174C137.85 88.0097 136.924 89.4159 136.527 91.0047C136.131 92.5934 136.287 94.27 136.97 95.7583C137.653 97.2466 138.822 98.458 140.285 99.193C139.14 100.931 135.826 106.078 135.826 108.18C135.826 109.729 135.637 120.306 136.095 125.574L130.072 129.131V118.999C130.072 116.304 127.715 113.502 126.286 111.333C127.783 110.669 129.01 109.515 129.764 108.061C130.517 106.608 130.754 104.941 130.434 103.335C130.114 101.729 129.257 100.279 128.003 99.2257C126.75 98.1718 125.175 97.5762 123.538 97.5368C121.901 97.4974 120.299 98.0166 118.996 99.0089C117.694 100.001 116.768 101.407 116.371 102.996C115.974 104.585 116.13 106.261 116.813 107.75C117.496 109.238 118.666 110.449 120.129 111.185C118.984 112.923 115.669 118.07 115.669 120.171C115.669 121.707 115.494 132.163 115.925 137.458L109.741 141.002V130.411C109.741 127.717 107.383 124.914 105.968 122.758C107.473 122.096 108.707 120.941 109.468 119.484C110.229 118.026 110.471 116.353 110.153 114.74C109.836 113.127 108.979 111.669 107.723 110.608C106.467 109.548 104.887 108.946 103.244 108.903C101.6 108.86 99.9908 109.378 98.681 110.372C97.3711 111.365 96.4388 112.775 96.0375 114.37C95.6363 115.964 95.79 117.648 96.4734 119.143C97.1568 120.639 98.3291 121.857 99.7972 122.597C98.652 124.335 95.3509 129.495 95.3509 131.597C95.3509 133.173 95.1488 144.181 95.6473 149.301L93.5993 150.5C91.0912 149.688 88.4367 149.428 85.8185 149.739C83.2003 150.049 80.6805 150.924 78.4324 152.301C76.1843 153.679 74.2612 155.527 72.7955 157.719C71.3297 159.91 70.3561 162.393 69.9415 164.997C69.5269 167.601 69.6812 170.264 70.3938 172.802C71.1063 175.341 72.3603 177.695 74.0694 179.702C75.7785 181.71 77.9021 183.324 80.2943 184.432C82.6865 185.541 85.2904 186.118 87.927 186.125C91.2272 186.098 94.4938 185.458 97.5606 184.238C113.891 176.949 144.422 155.418 153.22 150.244C155.726 151.133 158.395 151.465 161.042 151.215C163.689 150.964 166.249 150.139 168.544 148.797C170.838 147.454 172.812 145.627 174.327 143.442C175.842 141.258 176.862 138.768 177.315 136.149C177.768 133.529 177.643 130.842 176.949 128.275C176.256 125.709 175.01 123.325 173.299 121.29C171.588 119.255 169.453 117.618 167.044 116.494C164.635 115.37 162.009 114.786 159.351 114.782H159.404ZM159.404 146.566C158.231 146.566 157.062 146.412 155.928 146.108C154.587 145.752 153.309 145.189 152.142 144.437C135.974 154.462 111.142 172.112 95.0276 179.59C92.8097 180.555 90.3947 180.979 87.9809 180.83C86.0402 180.834 84.1233 180.403 82.3713 179.568C80.6193 178.734 79.0768 177.517 77.8575 176.007C76.6382 174.497 75.773 172.733 75.3258 170.845C74.8786 168.956 74.8606 166.992 75.2733 165.095C75.686 163.199 76.5188 161.42 77.7103 159.888C78.9019 158.356 80.4219 157.111 82.1583 156.245C83.8948 155.378 85.8035 154.912 87.7439 154.881C89.6843 154.85 91.607 155.255 93.3703 156.065L151.886 121.802C152.321 121.506 152.771 121.231 153.234 120.98C155.048 120.102 157.036 119.642 159.051 119.635C161.066 119.627 163.057 120.071 164.878 120.935C166.699 121.799 168.303 123.061 169.571 124.626C170.84 126.192 171.741 128.023 172.209 129.983C172.676 131.944 172.698 133.984 172.272 135.954C171.846 137.924 170.984 139.773 169.749 141.365C168.514 142.958 166.938 144.253 165.136 145.155C163.334 146.058 161.352 146.545 159.337 146.58L159.404 146.566Z" fill="#00B93E"/>
<path d="M143.292 21.9917H120.386V20.9543C120.386 20.8006 120.325 20.6533 120.217 20.5446C120.108 20.436 119.961 20.3749 119.807 20.3749H115.469C115.315 20.3749 115.168 20.436 115.059 20.5446C114.95 20.6533 114.889 20.8006 114.889 20.9543V22.0187H106.239C100.998 22.0187 101.443 49.0737 106.239 49.0737H143.292C148.088 49.0468 148.533 21.9917 143.292 21.9917ZM140.947 45.611H108.611C104.771 45.611 104.42 25.4006 108.611 25.4006H140.947C145.137 25.414 144.774 45.611 140.947 45.611Z" fill="#FF2A31"/>
<path d="M124.658 26.7189C123.078 26.7189 121.533 27.1875 120.219 28.0655C118.905 28.9434 117.881 30.1912 117.276 31.6512C116.671 33.1112 116.513 34.7176 116.821 36.2675C117.13 37.8174 117.891 39.2411 119.008 40.3585C120.126 41.4759 121.549 42.2368 123.099 42.5451C124.649 42.8534 126.255 42.6952 127.715 42.0904C129.175 41.4857 130.423 40.4616 131.301 39.1477C132.179 37.8338 132.648 36.289 132.648 34.7088C132.648 33.6595 132.441 32.6206 132.039 31.6512C131.638 30.6818 131.049 29.801 130.307 29.0591C129.566 28.3172 128.685 27.7287 127.715 27.3271C126.746 26.9256 125.707 26.7189 124.658 26.7189ZM124.658 39.977C123.617 39.9716 122.601 39.6581 121.738 39.076C120.876 38.4939 120.205 37.6693 119.81 36.7062C119.415 35.7431 119.315 34.6847 119.521 33.6646C119.727 32.6444 120.231 31.7083 120.969 30.9742C121.707 30.2401 122.646 29.741 123.667 29.5399C124.688 29.3388 125.746 29.4447 126.707 29.8442C127.668 30.2438 128.489 30.919 129.067 31.7848C129.645 32.6505 129.953 33.668 129.953 34.7088C129.953 35.4029 129.816 36.0901 129.549 36.7311C129.283 37.372 128.892 37.954 128.4 38.4435C127.908 38.9331 127.324 39.3206 126.682 39.5837C126.04 39.8469 125.352 39.9805 124.658 39.977Z" fill="#FF2A31"/>
<path d="M140.935 27.2492H136.596C136.276 27.2492 136.016 27.5087 136.016 27.8287V30.6588C136.016 30.9789 136.276 31.2383 136.596 31.2383H140.935C141.255 31.2383 141.515 30.9789 141.515 30.6588V27.8287C141.515 27.5087 141.255 27.2492 140.935 27.2492Z" fill="#FF2A31"/>
<path d="M208.748 29.464H184.953L194.816 19.1702C193.792 18.5235 192.768 17.9037 191.731 17.2839L179.847 29.4101H174.929L188.591 15.4111C186.534 14.2523 184.437 13.152 182.299 12.11L165.349 29.4236H156.457C145.112 29.4236 145.786 67.2575 146.446 67.2575H154.436C154.506 68.6877 155.124 70.0361 156.161 71.0235C157.198 72.0108 158.575 72.5615 160.007 72.5615C161.439 72.5615 162.816 72.0108 163.853 71.0235C164.89 70.0361 165.508 68.6877 165.578 67.2575H214.838C214.908 68.6877 215.526 70.0361 216.563 71.0235C217.6 72.0108 218.977 72.5615 220.409 72.5615C221.841 72.5615 223.218 72.0108 224.255 71.0235C225.292 70.0361 225.91 68.6877 225.981 67.2575H233.31C234.189 67.255 235.054 67.045 235.836 66.6446C236.618 66.2442 237.295 65.6648 237.81 64.9535C234.743 59.4026 231.267 54.0882 227.409 49.0547H220.578V40.9166C219.095 39.2908 217.568 37.7009 215.997 36.1469V49.0951H202.146V35.0017H214.838C212.853 33.0884 210.814 31.2425 208.721 29.464H208.748ZM183.471 35.0017H197.322V49.0951H183.471V35.0017ZM164.743 35.0017H178.648V49.0951H164.743V35.0017ZM155.621 35.0017H160.391V49.0951H155.621V35.0017Z" fill="#00B7DE"/>
<path d="M139.061 24.5628V30.2621C139.061 30.9768 138.777 31.6622 138.272 32.1676C137.767 32.6729 137.081 32.9569 136.367 32.9569C135.652 32.9569 134.966 32.6729 134.461 32.1676C133.956 31.6622 133.672 30.9768 133.672 30.2621V21.3022C133.679 19.0197 134.588 16.8325 136.201 15.2173C137.813 13.6021 139.999 12.6897 142.282 12.6791H155.822L163.637 6.66984C164.071 6.33573 164.62 6.18777 165.164 6.25852C165.433 6.29355 165.692 6.38122 165.927 6.51653C166.162 6.65183 166.369 6.83212 166.534 7.0471C166.699 7.26208 166.821 7.50754 166.892 7.76947C166.962 8.03139 166.98 8.30465 166.945 8.57365C166.91 8.84264 166.823 9.1021 166.687 9.33722C166.552 9.57233 166.372 9.77849 166.157 9.94393L160.282 14.4711L161.98 21.4639C162.123 21.7261 162.227 22.0074 162.29 22.2992L163.758 29.7097C163.898 30.4244 163.748 31.1652 163.341 31.7691C162.934 32.373 162.304 32.7905 161.589 32.9299C160.875 33.0693 160.134 32.919 159.53 32.5122C158.926 32.1054 158.508 31.4753 158.369 30.7607L157.453 26.1123L156.105 30.8819C156.017 31.2252 155.862 31.5476 155.649 31.8309C155.436 32.1142 155.169 32.3527 154.863 32.5329C154.558 32.7131 154.22 32.8313 153.869 32.881C153.518 32.9306 153.161 32.9106 152.818 32.8221C152.475 32.7337 152.152 32.5784 151.869 32.3653C151.586 32.1522 151.347 31.8854 151.167 31.5802C150.987 31.2749 150.868 30.9371 150.819 30.5861C150.769 30.2351 150.789 29.8778 150.878 29.5346L152.225 24.6841L139.061 24.5628Z" fill="#BD7ABD"/>
<path d="M121.869 9.02732H123.998C124.156 7.53379 124.891 6.16096 126.046 5.20081L127.716 0C129.993 1.71115 136.353 7.14101 136.083 11.0349C135.925 12.2031 135.357 13.2772 134.481 14.0666C133.606 14.8559 132.479 15.3094 131.3 15.3464H121.869C121.437 15.3747 121.003 15.3139 120.595 15.1679C120.187 15.0219 119.814 14.7938 119.498 14.4976C119.182 14.2015 118.93 13.8436 118.757 13.4461C118.585 13.0487 118.496 12.6201 118.496 12.1869C118.496 11.7537 118.585 11.3251 118.757 10.9276C118.93 10.5302 119.182 10.1723 119.498 9.87613C119.814 9.57997 120.187 9.35184 120.595 9.20584C121.003 9.05983 121.437 8.99908 121.869 9.02732Z" fill="#BD7ABD"/>
<path d="M152.36 1.97053L140.732 10.917C140.605 11.0833 140.44 11.2176 140.252 11.3093C140.063 11.4009 139.856 11.4473 139.647 11.4448C139.437 11.4423 139.231 11.3909 139.045 11.2948C138.859 11.1988 138.697 11.0606 138.574 10.8912C138.451 10.7219 138.368 10.5261 138.334 10.3195C138.299 10.1128 138.313 9.90091 138.375 9.70067C138.437 9.50042 138.544 9.31733 138.689 9.16594C138.834 9.01456 139.012 8.89905 139.21 8.82859L148.978 1.2699C150.11 1.472 151.242 1.68758 152.36 1.91663V1.97053Z" fill="#BD7ABD"/>
<path d="M79.8985 120.747C79.1709 118.052 77.6484 115.721 74.8728 115.721H52.4258L61.2376 106.909L47.993 93.7052L34.7484 106.95L43.5602 115.762H0.296421C0.175159 117.311 0.0808416 118.86 0 120.423H11.8568V133.803H0.0943149C0.450694 140.007 1.26583 146.177 2.53304 152.262H2.62735V152.41C2.85641 153.474 3.09893 154.552 3.34145 155.616C3.87371 156.097 4.56426 156.366 5.28166 156.371C6.04404 156.371 6.7754 156.069 7.31574 155.531C7.85609 154.993 8.16145 154.263 8.16501 153.501C8.16233 153.072 8.06575 152.649 7.88206 152.262H11.3852C11.1934 152.646 11.0963 153.071 11.1023 153.501C11.1023 154.262 11.4046 154.992 11.9428 155.53C12.481 156.069 13.211 156.371 13.9721 156.371C14.7333 156.371 15.4632 156.069 16.0014 155.53C16.5396 154.992 16.842 154.262 16.842 153.501C16.844 153.073 16.752 152.65 16.5725 152.262H20.3047C20.121 152.649 20.0245 153.072 20.0218 153.501C20.0717 154.23 20.3965 154.913 20.9304 155.411C21.4644 155.91 22.1678 156.187 22.8984 156.187C23.629 156.187 24.3324 155.91 24.8664 155.411C25.4003 154.913 25.7251 154.23 25.775 153.501C25.7723 153.072 25.6758 152.649 25.4921 152.262H52.1024C51.923 152.65 51.831 153.073 51.833 153.501C51.833 154.262 52.1353 154.992 52.6735 155.53C53.2117 156.069 53.9417 156.371 54.7029 156.371C55.464 156.371 56.194 156.069 56.7322 155.53C57.2704 154.992 57.5727 154.262 57.5727 153.501C57.5786 153.071 57.4816 152.646 57.2898 152.262H60.8738C60.6943 152.65 60.6023 153.073 60.6043 153.501C60.6043 154.262 60.9067 154.992 61.4449 155.53C61.9831 156.069 62.713 156.371 63.4742 156.371C64.2353 156.371 64.9653 156.069 65.5035 155.53C66.0417 154.992 66.344 154.262 66.344 153.501C66.3414 153.072 66.2448 152.649 66.0611 152.262H69.7933C69.6138 152.65 69.5219 153.073 69.5238 153.501C69.5238 154.262 69.8262 154.992 70.3644 155.53C70.9026 156.069 71.6326 156.371 72.3937 156.371C73.1548 156.371 73.8848 156.069 74.423 155.53C74.9612 154.992 75.2636 154.262 75.2636 153.501C75.2695 153.071 75.1725 152.646 74.9806 152.262C77.6753 152.262 79.2787 149.904 79.8985 147.236L83.2534 132.9L79.8985 120.747ZM29.8036 133.762H16.33V120.383H29.8036V133.762ZM47.8583 133.762H34.3847V120.383H47.8583V133.762ZM47.993 114.616L40.2861 106.909L47.993 99.189L55.6999 106.909L47.993 114.616ZM65.5895 133.762H52.1159V120.383H65.5895V133.762ZM74.8728 133.762H70.1705V120.383H74.8728V133.762Z" fill="#FF8814"/>
<path d="M123.001 37.6843C123.525 38.2268 123.817 38.9513 123.817 39.7053C123.817 40.4593 123.525 41.1838 123.001 41.7264C120.576 44.0977 117.895 46.6981 115.052 49.4333H118.487C119.223 49.4834 119.913 49.8111 120.416 50.3501C120.92 50.8891 121.2 51.5992 121.2 52.3368C121.2 53.0744 120.92 53.7845 120.416 54.3235C119.913 54.8625 119.223 55.1902 118.487 55.2404H109.46C109.33 55.2537 109.199 55.2537 109.069 55.2404C106.482 57.7465 103.815 60.3065 101.147 62.853H106.779C107.177 62.8259 107.576 62.8808 107.952 63.0145C108.328 63.1481 108.672 63.3576 108.963 63.6298C109.255 63.9021 109.487 64.2314 109.646 64.5972C109.805 64.9631 109.887 65.3577 109.887 65.7565C109.887 66.1554 109.805 66.55 109.646 66.9158C109.487 67.2817 109.255 67.611 108.963 67.8833C108.672 68.1555 108.328 68.365 107.952 68.4986C107.576 68.6323 107.177 68.6872 106.779 68.6601H95.0838L89.371 74.1304C88.2943 75.0114 87.4221 76.116 86.8148 77.3677C86.2076 78.6194 85.8799 79.9882 85.8544 81.3792V95.0953H73.7281H73.297V81.3522C73.2731 79.9623 72.9475 78.5942 72.3426 77.3426C71.7377 76.091 70.8681 74.9857 69.7938 74.1034L63.9328 68.6332H52.2916C51.5557 68.583 50.8663 68.2553 50.3628 67.7163C49.8593 67.1773 49.5792 66.4672 49.5792 65.7296C49.5792 64.992 49.8593 64.2819 50.3628 63.7429C50.8663 63.2039 51.5557 62.8762 52.2916 62.826H57.9236L50.0011 55.2269H40.5696C39.8337 55.1768 39.1443 54.8491 38.6408 54.31C38.1373 53.771 37.8572 53.061 37.8572 52.3234C37.8572 51.5858 38.1373 50.8757 38.6408 50.3367C39.1443 49.7977 39.8337 49.4699 40.5696 49.4198H43.9919C41.1489 46.7251 38.4677 44.0304 36.0424 41.7129C35.4904 41.1769 35.1738 40.4435 35.1624 39.6741C35.1511 38.9047 35.4458 38.1623 35.9818 37.6102C36.5178 37.0581 37.2512 36.7415 38.0206 36.7302C38.79 36.7188 39.5324 37.0135 40.0845 37.5495L47.7645 45.0948V42.5887C47.7374 42.1907 47.7923 41.7915 47.926 41.4157C48.0596 41.0399 48.2691 40.6955 48.5413 40.4041C48.8136 40.1126 49.1429 39.8802 49.5087 39.7213C49.8746 39.5625 50.2692 39.4805 50.668 39.4805C51.0669 39.4805 51.4615 39.5625 51.8274 39.7213C52.1932 39.8802 52.5225 40.1126 52.7948 40.4041C53.067 40.6955 53.2765 41.0399 53.4101 41.4157C53.5438 41.7915 53.5987 42.1907 53.5716 42.5887V49.9318C53.5699 50.187 53.5336 50.4408 53.4638 50.6863L62.4103 59.4442V54.1894C62.4103 53.4212 62.7155 52.6843 63.2588 52.1411C63.802 51.5978 64.5388 51.2926 65.3071 51.2926C66.0754 51.2926 66.8122 51.5978 67.3555 52.1411C67.8988 52.6843 68.2039 53.4212 68.2039 54.1894V65.13L76.5441 73.2142V57.5848L76.4633 57.504C67.948 49.2042 59.4551 40.8865 50.9847 32.5508H41.1894C45.1751 28.901 49.3921 25.5121 53.8141 22.4052V27.1614C61.4043 34.5988 68.9899 42.0318 76.5711 49.4602V39.1125L67.2473 30.0178C66.974 29.7524 66.7555 29.4357 66.6045 29.0859C66.4535 28.7361 66.3729 28.36 66.3673 27.979C66.3617 27.598 66.4311 27.2197 66.5717 26.8655C66.7123 26.5114 66.9213 26.1885 67.1867 25.9151C67.4521 25.6417 67.7687 25.4233 68.1186 25.2723C68.4684 25.1213 68.8445 25.0407 69.2255 25.0351C69.6065 25.0294 69.9848 25.0989 70.3389 25.2395C70.6931 25.3801 71.016 25.589 71.2894 25.8545L76.5711 31.0148V21.6911H61.2381C60.569 21.6865 59.9218 21.4526 59.4044 21.0284C58.8871 20.6042 58.5308 20.0153 58.3952 19.3602C60.2815 18.1475 62.1992 16.9888 64.1484 15.884H70.8852L68.4869 13.5396C70.2834 12.6413 72.0799 11.7655 73.8763 10.9122C74.7252 11.7072 75.7222 12.4752 76.6519 13.3914V9.68612C78.5831 8.85076 80.5368 8.0648 82.5129 7.32824V13.4587C84.7495 11.2625 87.4038 9.83433 87.4038 7.08571V5.63057C92.3595 4.0051 97.4133 2.69553 102.535 1.70975C102.387 2.07285 102.162 2.39932 101.875 2.66637L97.8324 6.62761H100.743C101.479 6.67777 102.168 7.00548 102.672 7.54449C103.175 8.08349 103.455 8.79358 103.455 9.53118C103.455 10.2688 103.175 10.9789 102.672 11.5179C102.168 12.0569 101.479 12.3846 100.743 12.4347H91.8906L88.1853 15.9514H97.8324C98.2304 15.9242 98.6296 15.9792 99.0054 16.1128C99.3812 16.2465 99.7255 16.4559 100.017 16.7282C100.308 17.0005 100.541 17.3298 100.7 17.6956C100.859 18.0615 100.941 18.4561 100.941 18.8549C100.941 19.2538 100.859 19.6484 100.7 20.0142C100.541 20.3801 100.308 20.7094 100.017 20.9816C99.7255 21.2539 99.3812 21.4634 99.0054 21.597C98.6296 21.7306 98.2304 21.7856 97.8324 21.7585H82.4321V31.0553L87.7137 25.9083C88.2658 25.3723 89.0082 25.0776 89.7776 25.089C90.5471 25.1003 91.2804 25.4169 91.8165 25.969C92.3525 26.5211 92.6472 27.2635 92.6358 28.0329C92.6245 28.8023 92.3079 29.5357 91.7558 30.0717L82.4321 39.1664V49.5276C90.0312 42.1081 97.6213 34.6752 105.202 27.2288V7.08571C105.202 6.31743 105.508 5.58061 106.051 5.03735C106.594 4.49409 107.331 4.18889 108.099 4.18889C108.868 4.18889 109.604 4.49409 110.148 5.03735C110.691 5.58061 110.996 6.31743 110.996 7.08571V21.5429L115.523 17.137C115.794 16.8654 116.117 16.6504 116.472 16.5045C116.827 16.3585 117.207 16.2846 117.591 16.287C117.975 16.2894 118.354 16.368 118.708 16.5183C119.061 16.6686 119.381 16.8876 119.648 17.1625C119.916 17.4375 120.127 17.7629 120.268 18.1199C120.409 18.4769 120.477 18.8583 120.469 19.2421C120.462 19.6258 120.378 20.0042 120.223 20.3552C120.067 20.7063 119.844 21.023 119.565 21.2869L113.906 26.8111H119.66C120.058 26.784 120.457 26.8389 120.833 26.9726C121.208 27.1062 121.553 27.3157 121.844 27.5879C122.136 27.8602 122.368 28.1895 122.527 28.5553C122.686 28.9212 122.768 29.3158 122.768 29.7146C122.768 30.1135 122.686 30.5081 122.527 30.8739C122.368 31.2398 122.136 31.5691 121.844 31.8414C121.553 32.1136 121.208 32.3231 120.833 32.4567C120.457 32.5904 120.058 32.6453 119.66 32.6182H107.992C99.5031 40.9449 91.0148 49.2626 82.5264 57.5713L82.4321 57.6522V73.3354L90.7722 65.2513V54.2433C90.7722 53.4751 91.0774 52.7382 91.6207 52.195C92.164 51.6517 92.9008 51.3465 93.6691 51.3465C94.4374 51.3465 95.1742 51.6517 95.7174 52.195C96.2607 52.7382 96.5659 53.4751 96.5659 54.2433V59.4981L105.512 50.7402C105.443 50.4947 105.406 50.2409 105.405 49.9857V42.6426C105.377 42.2446 105.432 41.8454 105.566 41.4696C105.7 41.0938 105.909 40.7494 106.181 40.458C106.454 40.1665 106.783 39.9341 107.149 39.7752C107.515 39.6163 107.909 39.5344 108.308 39.5344C108.707 39.5344 109.102 39.6163 109.467 39.7752C109.833 39.9341 110.163 40.1665 110.435 40.458C110.707 40.7494 110.917 41.0938 111.05 41.4696C111.184 41.8454 111.239 42.2446 111.212 42.6426V45.2026L118.905 37.6843C119.446 37.1575 120.171 36.8628 120.926 36.8628C121.681 36.8628 122.406 37.1575 122.947 37.6843H123.001Z" fill="#00B93E"/>
<path d="M229.767 171.938L229.699 172.046L226.964 170.334L223.784 168.394V168.3C224.879 165.486 226.232 162.78 227.826 160.216C229.349 157.721 231.08 155.359 233 153.156L236.18 155.096L238.875 156.78C236.952 158.981 235.221 161.343 233.701 163.84C232.109 166.405 230.756 169.111 229.659 171.924L229.767 171.938ZM217.277 192.35V192.242L214.488 190.531L211.308 188.591V188.699C207.371 193.15 204.231 198.245 202.024 203.762L205.204 205.703L207.899 207.387C208.977 204.673 210.289 202.059 211.82 199.572C213.393 196.998 215.197 194.572 217.209 192.323L217.277 192.35ZM227.638 185.479C225.517 188.798 222.64 191.568 219.244 193.563C217.485 195.742 215.869 198.033 214.407 200.421C212.817 203.009 211.421 205.711 210.23 208.505C216.185 211.2 226.331 204.692 234.307 193.28C235.021 192.256 235.722 191.192 236.396 190.1C244.614 176.627 246.541 162.749 240.963 158.275C237.235 162.771 234.143 167.758 231.774 173.096C231.508 177.296 230.197 181.362 227.961 184.926L227.638 185.438V185.479Z" fill="#FF1B0D"/>
<path d="M237.636 148.49L228.096 148.248C227.637 148.274 227.204 148.471 226.884 148.801C226.563 149.132 226.379 149.57 226.367 150.03C226.355 150.49 226.517 150.938 226.82 151.284C227.123 151.63 227.545 151.85 228.002 151.899L237.541 152.142C238.001 152.116 238.434 151.918 238.754 151.588C239.074 151.258 239.259 150.819 239.271 150.36C239.283 149.9 239.121 149.452 238.818 149.106C238.515 148.76 238.093 148.54 237.636 148.49ZM228.554 67.5679L231.249 128.469C231.249 128.826 231.107 129.169 230.855 129.421C230.602 129.674 230.259 129.816 229.902 129.816C229.719 129.825 229.537 129.797 229.365 129.733C229.194 129.67 229.038 129.572 228.905 129.446C228.773 129.32 228.668 129.168 228.596 129C228.524 128.832 228.487 128.651 228.487 128.469L225.792 67.541C222.384 68.1742 220.403 70.8959 218.571 77.7944L199.613 162.395C199.506 162.874 199.213 163.291 198.799 163.553C198.384 163.816 197.882 163.904 197.403 163.796C196.925 163.689 196.508 163.396 196.245 162.982C195.982 162.567 195.895 162.066 196.002 161.587L214.919 77.2689C216.118 70.2761 220.551 64.0244 227.355 64.0244C233.674 64.0244 238.04 68.5784 239.899 75.6117C239.904 75.6745 239.904 75.7375 239.899 75.8003V75.962C240.021 76.3931 240.115 76.8512 240.209 77.3093L253.198 135.246C252.928 139.018 252.502 142.737 251.918 146.402L236.517 77.6866C234.874 70.9498 232.475 67.9586 228.433 67.541L228.554 67.5679ZM228.312 131.056L234.429 132.699L234.698 131.514C234.82 130.995 235.042 130.506 235.352 130.073C235.662 129.641 236.055 129.273 236.507 128.993C236.96 128.712 237.463 128.523 237.988 128.436C238.513 128.35 239.051 128.368 239.569 128.489C240.088 128.61 240.577 128.832 241.01 129.143C241.442 129.453 241.809 129.845 242.09 130.298C242.371 130.75 242.56 131.253 242.647 131.779C242.733 132.304 242.715 132.841 242.594 133.36L240.667 141.551C240.142 143.788 239.037 147.049 235.925 146.941L229.942 146.739C227.248 146.739 227.382 146.24 224.984 147.561L220.484 150.053C215.579 152.748 214.501 147.588 217.142 146.106C219.783 144.623 222.747 142.764 225.375 141.498C227.382 140.46 232.111 142.67 232.785 139.706L233.553 136.405L227.328 134.747C226.841 134.612 226.426 134.29 226.174 133.851C225.922 133.413 225.853 132.892 225.981 132.403C226.114 131.917 226.433 131.502 226.869 131.25C227.306 130.998 227.824 130.928 228.312 131.056ZM239.845 117.703C240.779 117.701 241.693 117.975 242.47 118.492C243.248 119.009 243.854 119.746 244.213 120.608C244.572 121.47 244.666 122.42 244.485 123.336C244.303 124.252 243.854 125.093 243.193 125.754C242.533 126.414 241.692 126.863 240.775 127.045C239.859 127.226 238.91 127.132 238.048 126.773C237.186 126.415 236.449 125.808 235.932 125.03C235.415 124.253 235.14 123.339 235.143 122.406C235.143 121.158 235.638 119.962 236.52 119.08C237.402 118.199 238.598 117.703 239.845 117.703Z" fill="#FF3A3A"/>
<path d="M106.389 228.293C104.882 231.94 102.523 235.173 99.5082 237.719C96.4937 240.266 92.9123 242.052 89.0646 242.928C85.2169 243.804 81.2152 243.745 77.3953 242.754C73.5755 241.764 70.049 239.871 67.1118 237.236C64.1747 234.6 61.9126 231.299 60.5155 227.608C59.1183 223.918 58.6269 219.946 59.0824 216.026C59.5379 212.106 60.9271 208.353 63.1333 205.081C65.3396 201.809 68.2985 199.114 71.7617 197.223V203.178C69.1915 205.111 67.1347 207.645 65.7716 210.557C64.4085 213.47 63.7808 216.673 63.9436 219.884C64.1063 223.096 65.0544 226.219 66.7049 228.979C68.3554 231.739 70.6577 234.052 73.4101 235.715C76.1625 237.378 79.2809 238.34 82.4919 238.518C85.7028 238.695 88.9082 238.082 91.8271 236.732C94.746 235.383 97.2891 233.337 99.2336 230.776C101.178 228.215 102.465 225.215 102.98 222.041L106.389 228.293ZM81.2741 183.21C83.0301 183.217 84.712 183.918 85.9537 185.16C87.1953 186.401 87.896 188.083 87.9031 189.839V194.245H100.029C100.86 194.298 101.639 194.666 102.208 195.273C102.777 195.88 103.094 196.68 103.094 197.512C103.094 198.344 102.777 199.145 102.208 199.752C101.639 200.359 100.86 200.726 100.029 200.78H87.9031V205.873H103.991C104.791 205.875 105.577 206.089 106.268 206.493C106.954 206.858 107.524 207.409 107.911 208.083L118.232 225.962C118.725 226.905 118.834 228.003 118.536 229.025C118.239 230.047 117.557 230.914 116.635 231.445C115.712 231.976 114.62 232.129 113.587 231.873C112.553 231.617 111.659 230.972 111.091 230.071L102.36 214.968H81.2876C80.7783 214.966 80.2728 214.879 79.792 214.712C78.341 214.358 77.0511 213.526 76.1298 212.351C75.2085 211.175 74.7093 209.724 74.7125 208.231V189.839C74.716 188.082 75.4156 186.398 76.658 185.156C77.9004 183.913 79.5844 183.214 81.3415 183.21H81.2741ZM81.584 167.999C82.9164 167.999 84.2189 168.394 85.3268 169.134C86.4346 169.874 87.2981 170.926 87.808 172.157C88.3179 173.388 88.4513 174.743 88.1914 176.05C87.9314 177.356 87.2898 178.557 86.3476 179.499C85.4055 180.441 84.2051 181.083 82.8983 181.343C81.5915 181.603 80.2369 181.469 79.0059 180.959C77.775 180.449 76.7228 179.586 75.9826 178.478C75.2423 177.37 74.8472 176.068 74.8472 174.735C74.8472 172.949 75.557 171.235 76.8204 169.972C78.0838 168.708 79.7973 167.999 81.584 167.999Z" fill="#DC4F90"/>
<path d="M104.664 245.883H130.574V234.862L105.702 234.754L126.289 217.36L114.055 217.225L129.375 203.118H122.53L133.457 192.797L135.465 190.871L136.233 191.625L148.359 203.118H141.501L156.901 217.225L144.681 217.36L165.255 234.754H141.474V245.816H160.889C152.15 250.102 142.545 252.331 132.81 252.331C123.076 252.331 113.471 250.102 104.731 245.816L104.664 245.883Z" fill="#00B93E"/>
<path d="M4.89209 148.519V144.571L12.8011 144.679V148.627L4.89209 148.519ZM16.7489 148.681V144.72L24.6579 144.827V148.775L16.7489 148.681ZM28.5922 148.829V144.881L36.5012 144.976V148.937L28.5922 148.829ZM40.4489 148.977V145.029L48.358 145.137V149.085L40.4489 148.977ZM52.3057 149.139V145.191H55.1082H57.0619V152.238H53.1546V149.098L52.3057 149.139ZM53.168 156.239H57.1158V164.149H53.1546L53.168 156.239ZM53.168 168.096H57.1158V176.005H53.1546L53.168 168.096ZM57.4796 179.589V175.628H65.3751V179.576L57.4796 179.589ZM69.3364 179.589V175.641H77.2454V179.603L69.3364 179.589ZM81.1931 179.589V175.628H89.1022V179.589H81.1931ZM93.0499 179.589V175.641H100.959V179.603L93.0499 179.589ZM104.907 179.589V175.641H112.816V179.603L104.907 179.589ZM116.763 179.589V175.641H124.672V179.603L116.763 179.589ZM128.62 179.589V175.641H136.529V179.589H128.62ZM140.477 179.589V175.641H148.373V179.589H140.477ZM152.334 179.589V175.641H160.229V179.589H152.334ZM164.177 179.589V175.641H172.073V179.589H164.177ZM171.682 179.993H175.63V187.889H171.668L171.682 179.993ZM171.682 191.85H175.63V199.759H171.722L171.682 191.85ZM171.682 203.707H175.764V211.603H171.722L171.682 203.707ZM171.682 215.564H175.764V223.459H171.803L171.682 215.564ZM171.682 227.407H175.764V235.303H171.817L171.682 227.407ZM171.682 239.264H175.764V243.266C174.417 243.804 173.151 244.33 171.817 244.828L171.682 239.264Z" fill="#BD7ABD"/>
<path d="M36.1075 162.623C22.7956 162.623 11.9897 165.735 11.9897 169.575C11.9952 169.823 12.0407 170.069 12.1245 170.303L13.7817 181.904C15.8093 186.063 18.0581 190.111 20.5185 194.03L19.9796 189.988C22.7217 190.518 25.4933 190.882 28.2793 191.079L28.7105 197.021C26.3118 196.822 23.9408 196.37 21.6368 195.674C22.7552 197.385 23.9139 199.082 25.113 200.74C26.3796 200.928 27.6865 201.076 29.0204 201.184L29.3707 206.008H29.1012C30.5294 207.786 31.9981 209.538 33.5206 211.236V210.454C35.7707 210.454 38.0477 210.454 40.2574 210.319L39.8936 215.466C39.1525 215.466 38.3845 215.574 37.5896 215.601C39.6645 217.743 41.8338 219.805 44.0569 221.799C49.2308 221.017 52.8687 219.495 53.2729 217.757C53.2786 217.69 53.2786 217.622 53.2729 217.555L54.9706 205.684C55.0882 205.244 55.156 204.792 55.1727 204.337L60.104 169.952C60.1173 169.791 60.1173 169.629 60.104 169.467C60.2253 165.735 49.4329 162.623 36.1075 162.623ZM19.4002 185.528L18.3897 178.01C21.3735 178.95 24.4421 179.595 27.5518 179.936L28.0638 187.024C25.1514 186.814 22.2697 186.295 19.4676 185.474L19.4002 185.528ZM17.46 171.057C17.6756 169.171 25.9349 167.662 36.1075 167.662C44.1917 167.662 51.1306 168.619 53.6906 169.966L53.5828 170.047C47.7622 175.072 25.5846 176.272 17.46 171.003V171.057ZM40.5942 206.237C38.1434 206.445 35.6829 206.516 33.2242 206.452L32.9412 201.575C35.6378 201.653 38.3367 201.581 41.0254 201.359L40.5942 206.237ZM41.241 197.075C38.368 197.376 35.4788 197.493 32.5909 197.425L32.1732 191.456C35.3184 191.55 38.4664 191.482 41.6047 191.254L41.241 197.075ZM41.9551 186.875C38.6063 187.204 35.2402 187.321 31.8768 187.226L31.3917 180.26C35.0774 180.458 38.7733 180.345 42.4401 179.923L41.9551 186.875ZM49.1769 212.273C49.1769 213.445 47.0211 214.469 43.7875 215.089L44.1512 210.104C46.051 209.875 47.8969 209.565 49.6485 209.188L49.1769 212.273ZM50.2683 204.189C48.3768 204.885 46.4165 205.377 44.4207 205.658L44.771 200.888C46.8272 200.608 48.8652 200.207 50.8746 199.689L50.2683 204.189ZM51.6156 194.165C49.5994 195.34 47.3765 196.117 45.0675 196.455L45.4717 190.823C47.7348 190.559 49.9832 190.181 52.2085 189.691L51.6156 194.165ZM52.963 184.302C50.6937 185.298 48.2935 185.965 45.8354 186.282L46.3474 179.236C48.8092 178.803 51.2331 178.177 53.5963 177.363C53.7178 177.318 53.8315 177.255 53.9331 177.174L52.963 184.302Z" fill="#FF2A31"/>
<path d="M35.3548 63.0836C34.6812 67.4895 33.226 72.825 32.202 77.2713C31.178 81.7176 30.0732 86.6085 29.0627 91.2704C27.4324 98.7483 28.106 98.0072 24.5625 103.922C22.4067 107.515 20.2419 111.144 18.0682 114.809C16.8825 116.789 15.8585 118.851 17.2598 121.317C17.8329 122.324 18.7262 123.111 19.7979 123.553C20.8695 123.995 22.058 124.066 23.1747 123.755C26.1658 122.906 28.5641 117.557 30.6391 114.081C32.714 110.605 34.8967 106.94 37.0256 103.302C38.9119 100.069 39.5721 91.3108 40.65 89.5997C42.8462 91.6881 47.3059 96.835 49.556 99.3276C52.4124 102.507 51.4019 100.446 52.7762 107.412C53.5307 111.265 54.1236 116.372 55.2015 119.983C55.4348 120.886 55.9049 121.71 56.5634 122.371C57.2218 123.032 58.0448 123.505 58.9471 123.742C59.9452 123.979 60.9901 123.926 61.9591 123.589C62.9281 123.252 63.7809 122.646 64.4174 121.842C66.3037 119.147 64.6599 113.758 63.8381 109.635C63.38 107.277 62.0326 98.5866 61.2646 97.1853C60.9143 96.5521 55.1341 89.8557 54.4335 89.0068C53.3017 87.6595 52.0756 86.3121 50.9977 84.9647C49.903 83.5558 48.7336 82.2065 47.4946 80.9227L50.8495 65.5897C50.9978 65.6906 51.1258 65.8186 51.2268 65.967C52.8705 68.0688 52.5741 70.6423 55.6326 72.7711C57.9366 74.3745 63.9189 78.6456 66.0342 79.9391C66.6915 80.3695 67.4667 80.5839 68.2518 80.5525C69.0368 80.5211 69.7924 80.2454 70.4132 79.7639C71.0248 79.2167 71.4267 78.4734 71.5496 77.6619C71.6726 76.8505 71.5089 76.0215 71.0869 75.3176C70.3054 74.0781 62.3155 68.9311 60.7526 67.8533C59.1897 66.7754 59.6478 67.0314 58.3408 64.4714L52.3585 52.6685C49.5426 47.0635 44.2744 46.2416 38.9927 50.4858L30.8142 57.1013C30.0328 57.6942 24.6703 62.0461 24.3738 62.4908C23.5924 63.6091 22.3528 70.0495 21.9082 72.0436C21.3962 74.3475 19.6042 79.737 20.8977 81.5694C22.1911 83.4018 26.2871 84.4932 27.4593 79.0768C28.1599 75.8162 28.8067 72.6633 29.5612 69.4027C30.1944 66.4655 30.0867 67.1796 31.8652 65.6975C32.9442 64.6952 34.1122 63.7932 35.3548 63.0028V63.0836Z" fill="#FF2A31"/>
<path d="M46.1468 31.1269C36.0685 33.0805 38.8441 47.9015 48.7741 46.2442C58.7042 44.587 55.9151 29.1732 46.0794 31.1269H46.1468Z" fill="#FF2A31"/>
<path d="M55.9948 132.14H63.9308V125.848H55.9409L55.9948 132.14Z" fill="#FF2A31"/>
<path d="M21.1538 109.31H29.467L30.3698 109.216V102.115L29.4805 101.981H21.1673L21.1538 109.31Z" fill="#FF2A31"/>
<path d="M24.2793 132.14H32.1883V125.848H24.2928L24.2793 132.14Z" fill="#FF2A31"/>
<path d="M8.40723 132.14H16.3297V125.848H8.4207L8.40723 132.14Z" fill="#FF2A31"/>
<path d="M71.6675 132.14H79.59V125.848H71.7079L71.6675 132.14Z" fill="#FF2A31"/>
<path d="M68.9438 109.313H78.1328V102.011H68.9977L68.9438 109.313Z" fill="#FF2A31"/>
<path d="M193.439 197.522C193.736 198.155 198.546 202.804 199.449 203.72C200.351 204.636 201.443 205.728 202.521 206.792C206.563 210.753 208.692 212.815 203.45 217.76C200.257 220.778 197.306 223.823 194.167 226.72L191.108 229.791C190.148 230.92 188.946 231.818 187.592 232.419C186.795 232.652 185.95 232.663 185.148 232.451C184.346 232.238 183.617 231.811 183.04 231.215C182.463 230.618 182.06 229.875 181.874 229.067C181.689 228.258 181.728 227.413 181.987 226.625C182.714 224.362 189.37 219.322 190.704 217.342C181.583 217.099 172.151 217.342 162.976 217.342C160.389 217.342 144.288 217.719 142.523 216.938C141.701 216.576 141.006 215.978 140.526 215.22C140.046 214.461 139.803 213.577 139.828 212.68C139.99 207.291 146.08 208.301 149.354 208.301H177.109C181.637 208.301 186.433 208.449 190.92 208.301C190.159 207.2 189.252 206.208 188.225 205.35C184.291 201.308 181.488 200.028 182.607 195.515L182.674 195.434L182.755 195.353L183.119 194.854C183.269 194.632 183.445 194.428 183.644 194.248C188.05 190.139 191.85 196.687 193.466 197.576L193.439 197.522Z" fill="#BD7ABD"/>
<path d="M186.609 183.568V187.529L178.7 187.596V183.635L186.609 183.568ZM247.443 161.336V165.298H239.547V161.336H247.443ZM235.586 161.336V165.298H227.69V161.336H235.586ZM223.742 161.336V165.298H215.833V161.336H223.742ZM211.886 161.336V165.298H209.689V167.036H205.728V161.323L211.886 161.336ZM205.769 171.01H209.716V178.919H205.809L205.769 171.01ZM205.769 182.867H209.716V187.354H207.83H202.441V183.393H205.85L205.769 182.867ZM198.399 183.473V187.421H190.49V183.473H198.399Z" fill="#BD7ABD"/>
<path d="M150.164 103.544C150.51 100.358 151.63 97.3056 153.424 94.6512C154.556 92.9401 157.709 89.41 159.649 88.8172C160.579 90.1645 164.554 97.6154 165.726 99.6904C166.493 100.913 167.147 102.203 167.68 103.544H150.164ZM104.96 89.9624C112.195 94.9477 116.21 107.478 109.352 117.354C108.68 118.307 107.937 119.208 107.129 120.049C106.375 120.926 105.504 121.697 104.542 122.34C87.8214 134.264 64.9433 116.613 74.7116 96.5241C80.8691 83.805 97.7785 84.3978 100.797 87.5237C100.379 88.642 96.3772 95.6079 95.5149 97.0361C93.669 100.202 89.7886 105.457 92.901 106.831C95.178 107.828 96.1616 105.484 97.0105 103.921C98.25 101.658 104.354 90.5687 105.014 89.9624H104.96ZM164.028 86.7557C167.194 84.8424 174.336 85.7721 177.596 87.0387C189.857 91.8622 194.371 107.141 186.839 117.543C175.454 133.253 151.942 125.91 150.15 108.219C154.853 108.219 159.582 108.219 164.271 108.219C168.515 108.219 175.75 109.324 173.918 104.864C172.907 102.399 164.567 88.5207 164.028 86.7557ZM113.906 73.6189L125.898 94.3144C127.852 97.8849 129.859 101.186 131.84 104.81C133.187 107.37 133.187 108.233 136.798 108.206C139.388 108.064 141.983 108.064 144.572 108.206C145.448 111.978 145.475 113.595 147.051 117.017C148.567 120.053 150.616 122.791 153.101 125.102C161.684 132.418 174.524 133.954 184.09 127.567C207.346 112.032 193.67 76.9334 166.885 80.4096C164.796 80.6791 162.977 81.4336 161.199 81.6761L156.16 72.7566C155.459 71.4093 156.16 70.776 157.669 68.0678C158.262 67.0303 159.595 64.147 160.431 63.5811C162.775 63.5811 169.094 64.2009 170.374 62.7996C170.603 62.5361 170.769 62.2249 170.862 61.8889C170.955 61.5528 170.971 61.2002 170.911 60.8569C170.85 60.5136 170.714 60.1881 170.511 59.9042C170.309 59.6202 170.046 59.385 169.741 59.2156C168.636 58.7036 155.082 58.8923 153.465 58.9462C151.848 59.0001 150.501 59.8354 150.878 61.8161C151.255 63.7967 152.751 63.5002 154.745 63.6215L152.859 67.2998H117.665L123.769 56.2784C127.151 56.1841 130.587 56.2784 133.982 56.2784C138.55 56.2784 138.024 51.7243 134.494 51.6435C130.964 51.5626 127.623 51.6435 124.214 51.6435C120.172 51.6435 121.007 51.7917 118.514 56.1571C116.022 60.5226 113.677 64.915 111.09 69.2804C108.503 73.6459 106.213 78.3077 103.599 82.5924C99.4761 81.1507 97.253 80.1402 92.1195 80.221C88.2175 80.2719 84.3804 81.2266 80.9095 83.01C76.9182 85.0514 73.529 88.0995 71.0773 91.8527C68.6256 95.606 67.1963 99.9343 66.9309 104.41C66.6655 108.885 67.5731 113.352 69.564 117.368C71.5549 121.385 74.5601 124.812 78.2821 127.311C102.117 143.331 131.18 113.11 112.68 89.8277C111.128 88.0667 109.444 86.4271 107.641 84.9233L113.906 73.6189ZM138.455 103.584C138.577 102.695 144.626 91.8757 145.61 90.1106C147.254 87.2407 151.673 78.6042 152.98 76.7852C154.542 79.0591 155.857 81.4937 156.901 84.0475C155.217 84.9503 153.659 86.0691 152.266 87.3755C149.522 90.1274 147.399 93.4353 146.041 97.0765C143.211 105.039 147.294 103.463 138.415 103.584H138.455ZM134.036 99.2727C131.921 95.783 118.797 72.541 118.609 71.9213H150.258L134.737 100.148L134.036 99.2727Z" fill="#8A2E83"/>
<path d="M174.914 98.0079C176.107 98.0079 177.274 98.3619 178.267 99.0252C179.26 99.6885 180.033 100.631 180.49 101.734C180.947 102.837 181.067 104.051 180.834 105.222C180.601 106.393 180.026 107.468 179.182 108.312C178.338 109.157 177.262 109.731 176.091 109.964C174.92 110.197 173.707 110.078 172.604 109.621C171.501 109.164 170.558 108.39 169.895 107.398C169.231 106.405 168.877 105.238 168.877 104.044C168.877 102.443 169.513 100.908 170.645 99.7759C171.777 98.6439 173.313 98.0079 174.914 98.0079Z" fill="#FF8814"/>
<path d="M191.324 127.596V138.591C191.354 139.07 191.285 139.55 191.122 140.002C190.959 140.453 190.705 140.867 190.376 141.217C190.048 141.567 189.651 141.845 189.21 142.036C188.769 142.227 188.294 142.325 187.814 142.325C187.334 142.325 186.859 142.227 186.418 142.036C185.977 141.845 185.58 141.567 185.252 141.217C184.923 140.867 184.669 140.453 184.506 140.002C184.343 139.55 184.274 139.07 184.304 138.591V124.47C183.452 127.108 183.024 129.864 183.038 132.635V171.412C183.038 172.331 182.678 173.214 182.036 173.871C181.394 174.528 180.52 174.908 179.602 174.929H179.44C178.522 174.908 177.648 174.528 177.006 173.871C176.364 173.214 176.004 172.331 176.004 171.412V144.29C175.987 144.029 175.873 143.784 175.683 143.604C175.493 143.424 175.242 143.323 174.98 143.32C174.72 143.323 174.471 143.425 174.283 143.605C174.096 143.785 173.984 144.03 173.97 144.29V171.412C173.967 172.33 173.606 173.211 172.965 173.867C172.323 174.524 171.452 174.905 170.534 174.929H170.372C169.454 174.908 168.58 174.528 167.938 173.871C167.296 173.214 166.936 172.331 166.937 171.412V132.635C166.955 129.864 166.532 127.108 165.684 124.47V138.591C165.684 139.523 165.313 140.418 164.654 141.077C163.994 141.737 163.1 142.107 162.167 142.107C161.234 142.107 160.34 141.737 159.68 141.077C159.021 140.418 158.65 139.523 158.65 138.591V127.596C159.311 115.079 164.484 111.428 175.007 111.684C185.53 111.374 190.704 115.066 191.351 127.596H191.324ZM179.534 174.929H170.44H179.534Z" fill="#FF8814"/>
<path d="M212.412 154.343H211.388H210.782V171.441C210.779 172.361 210.416 173.243 209.772 173.9C209.128 174.557 208.252 174.936 207.333 174.957H207.171C206.252 174.936 205.378 174.556 204.736 173.899C204.094 173.242 203.735 172.36 203.735 171.441V153.265C201.71 152.806 199.716 152.216 197.766 151.5L203.776 126.897C203.776 126.614 203.614 126.318 203.506 126.008L200.151 137.905C199.68 139.535 198.548 141.112 196.406 140.6C193.024 139.71 194.479 135.763 195.058 133.863C197.2 127.126 198.036 121.588 201.121 116.347C202.361 114.272 205.056 112.858 211.375 112.979H212.399C218.731 112.858 221.426 114.326 222.666 116.347C225.751 121.535 226.573 127.126 228.729 133.863C229.308 135.709 230.763 139.657 227.381 140.6C225.226 141.152 224.094 139.576 223.636 137.905L220.308 126.048C220.197 126.338 220.107 126.635 220.038 126.937L226.047 151.54C224.097 152.254 222.104 152.844 220.079 153.305V171.454C220.079 172.373 219.719 173.256 219.077 173.913C218.435 174.57 217.561 174.95 216.643 174.971H216.468C215.549 174.95 214.675 174.57 214.033 173.913C213.391 173.256 213.032 172.373 213.032 171.454V154.343H212.412ZM216.549 174.917H207.265H216.549Z" fill="#FF8814"/>
<path d="M212.29 99.448C213.484 99.448 214.652 99.8024 215.645 100.466C216.637 101.13 217.411 102.074 217.868 103.177C218.324 104.281 218.443 105.496 218.209 106.667C217.975 107.838 217.399 108.914 216.553 109.757C215.708 110.601 214.631 111.175 213.459 111.406C212.287 111.637 211.073 111.516 209.97 111.057C208.868 110.598 207.926 109.822 207.264 108.828C206.603 107.834 206.251 106.665 206.253 105.471C206.253 104.679 206.41 103.894 206.713 103.163C207.017 102.431 207.462 101.767 208.022 101.207C208.583 100.648 209.248 100.204 209.981 99.9026C210.713 99.6007 211.498 99.4463 212.29 99.448Z" fill="#FF8814"/>
<path d="M108.759 185.063C110.408 184.427 112.153 184.081 113.919 184.039H166.008C167.853 184.071 169.677 183.645 171.317 182.799L178.808 179.862C179.344 179.656 179.94 179.672 180.464 179.906C180.989 180.14 181.399 180.572 181.604 181.108C181.81 181.644 181.794 182.24 181.56 182.764C181.326 183.288 180.894 183.698 180.358 183.904L172.341 187.057C170.864 187.838 169.239 188.297 167.571 188.404C168.348 188.933 168.934 189.696 169.244 190.582C169.555 191.468 169.573 192.431 169.297 193.328C169.02 194.225 168.463 195.011 167.708 195.568C166.952 196.126 166.038 196.427 165.099 196.427C164.16 196.427 163.246 196.126 162.49 195.568C161.735 195.011 161.178 194.225 160.901 193.328C160.625 192.431 160.643 191.468 160.954 190.582C161.264 189.696 161.85 188.933 162.627 188.404H120.764C121.54 188.933 122.127 189.696 122.437 190.582C122.747 191.468 122.766 192.431 122.489 193.328C122.213 194.225 121.656 195.011 120.9 195.568C120.145 196.126 119.231 196.427 118.292 196.427C117.353 196.427 116.438 196.126 115.683 195.568C114.927 195.011 114.371 194.225 114.094 193.328C113.818 192.431 113.836 191.468 114.146 190.582C114.457 189.696 115.043 188.933 115.819 188.404H113.623C112.965 188.388 112.31 188.502 111.696 188.741L109.972 189.253C109.436 189.414 108.858 189.355 108.365 189.09C107.872 188.824 107.505 188.374 107.344 187.838C107.184 187.302 107.242 186.724 107.508 186.231C107.773 185.739 108.223 185.372 108.759 185.211V185.063Z" fill="#00B7DE"/>
<path d="M108.395 161.578H108.476C108.453 161.861 108.489 162.147 108.582 162.416C108.675 162.685 108.822 162.932 109.015 163.142C109.208 163.351 109.443 163.518 109.703 163.632C109.964 163.747 110.246 163.806 110.531 163.806C110.815 163.806 111.097 163.747 111.358 163.632C111.619 163.518 111.853 163.351 112.046 163.142C112.239 162.932 112.387 162.685 112.479 162.416C112.572 162.147 112.608 161.861 112.585 161.578C112.562 161.861 112.598 162.147 112.691 162.416C112.784 162.685 112.932 162.932 113.125 163.142C113.318 163.351 113.552 163.518 113.813 163.632C114.074 163.747 114.355 163.806 114.64 163.806C114.925 163.806 115.206 163.747 115.467 163.632C115.728 163.518 115.962 163.351 116.155 163.142C116.349 162.932 116.496 162.685 116.589 162.416C116.682 162.147 116.718 161.861 116.695 161.578C116.714 162.121 116.937 162.637 117.319 163.023C117.701 163.41 118.214 163.639 118.756 163.666C119.196 163.653 119.62 163.501 119.969 163.233C120.317 162.964 120.572 162.592 120.696 162.17C120.776 162.189 120.859 162.189 120.939 162.17C121.072 162.58 121.329 162.939 121.674 163.197C122.019 163.455 122.435 163.6 122.866 163.612C123.414 163.585 123.931 163.349 124.312 162.954C124.692 162.558 124.907 162.032 124.914 161.483C124.92 162.034 125.137 162.562 125.521 162.958C125.904 163.354 126.425 163.588 126.975 163.612C127.54 163.551 128.062 163.283 128.441 162.86C128.821 162.438 129.03 161.89 129.03 161.322C129.03 160.754 128.821 160.206 128.441 159.783C128.062 159.36 127.54 159.092 126.975 159.031C126.694 159.035 126.416 159.099 126.161 159.217C125.906 159.336 125.678 159.506 125.493 159.718L125.412 159.624C126.275 157.872 125.911 155.326 125.331 152.685C124.972 150.632 124.472 148.606 123.836 146.622C123.095 145.975 116.816 145.733 116.008 146.299C115.199 146.864 115.132 148.832 113.784 150.3C111.224 152.874 103.383 152.739 102.386 156.714C102.111 157.485 102.111 158.327 102.386 159.098H102.224C101.659 159.16 101.137 159.428 100.758 159.85C100.379 160.273 100.169 160.821 100.169 161.389C100.169 161.957 100.379 162.505 100.758 162.928C101.137 163.35 101.659 163.618 102.224 163.679C102.756 163.651 103.258 163.428 103.636 163.052C104.013 162.677 104.24 162.176 104.272 161.645C104.351 162.124 104.597 162.56 104.967 162.875C105.337 163.189 105.807 163.362 106.293 163.362C106.779 163.362 107.249 163.189 107.619 162.875C107.989 162.56 108.236 162.124 108.314 161.645L108.395 161.578Z" fill="#00B7DE"/>
<path d="M194.384 145.92V147.604H200.205C201.119 147.661 201.978 148.063 202.605 148.73C203.233 149.398 203.582 150.279 203.582 151.195C203.582 152.111 203.233 152.993 202.605 153.66C201.978 154.327 201.119 154.73 200.205 154.786H194.384V160.256H204.058C204.708 160.277 205.322 160.554 205.769 161.026C206.215 161.497 206.458 162.126 206.443 162.776C206.448 163.298 206.291 163.808 205.994 164.237C205.697 164.667 205.275 164.994 204.786 165.174C204.793 165.25 204.793 165.327 204.786 165.403V182.636C204.786 182.968 204.654 183.287 204.419 183.522C204.184 183.757 203.865 183.889 203.533 183.889C203.201 183.889 202.882 183.757 202.647 183.522C202.412 183.287 202.28 182.968 202.28 182.636V165.282H199.477V176.667C199.477 176.999 199.345 177.318 199.11 177.553C198.875 177.788 198.557 177.92 198.224 177.92C197.892 177.92 197.573 177.788 197.338 177.553C197.103 177.318 196.971 176.999 196.971 176.667V165.282H133.295V176.667C133.295 176.999 133.163 177.318 132.928 177.553C132.693 177.788 132.374 177.92 132.042 177.92C131.71 177.92 131.391 177.788 131.156 177.553C130.921 177.318 130.789 176.999 130.789 176.667V165.282H127.986C127.986 165.282 127.986 165.282 127.986 165.39V182.636C128.005 182.812 127.986 182.991 127.931 183.159C127.876 183.328 127.786 183.483 127.667 183.615C127.548 183.746 127.403 183.851 127.241 183.924C127.079 183.996 126.904 184.033 126.727 184.033C126.549 184.033 126.374 183.996 126.212 183.924C126.05 183.851 125.905 183.746 125.786 183.615C125.667 183.483 125.577 183.328 125.522 183.159C125.467 182.991 125.448 182.812 125.467 182.636V165.39C125.467 165.39 125.467 165.309 125.467 165.268C124.855 165.169 124.301 164.848 123.91 164.367C123.519 163.886 123.318 163.279 123.344 162.66C123.371 162.041 123.623 161.453 124.054 161.007C124.485 160.562 125.064 160.29 125.682 160.243H135.397V154.772H129.59C128.675 154.716 127.817 154.314 127.189 153.646C126.562 152.979 126.212 152.098 126.212 151.182C126.212 150.266 126.562 149.384 127.189 148.717C127.817 148.05 128.675 147.647 129.59 147.591H135.397V145.92H129.59C128.639 145.92 127.728 145.543 127.055 144.871C126.383 144.198 126.006 143.287 126.006 142.336C126.006 141.386 126.383 140.474 127.055 139.802C127.728 139.13 128.639 138.752 129.59 138.752H200.178C201.128 138.752 202.04 139.13 202.712 139.802C203.384 140.474 203.762 141.386 203.762 142.336C203.762 143.287 203.384 144.198 202.712 144.871C202.04 145.543 201.128 145.92 200.178 145.92H194.384ZM191.932 160.243V154.772H138.038V160.243H191.932ZM138.038 147.591H191.932V145.92H138.038V147.591Z" fill="#FFAE00"/>
<path d="M203.478 76.7888V78.4596C203.474 79.5519 203.039 80.5986 202.266 81.371C201.494 82.1434 200.447 82.5789 199.355 82.5825H178.457C177.365 82.5789 176.318 82.1434 175.546 81.371C174.774 80.5986 174.338 79.5519 174.335 78.4596V58.9094H203.976C209.46 58.9094 213.907 62.8706 213.907 67.7615C213.907 72.6524 209.46 76.6272 203.976 76.6272H203.532L203.478 76.7888ZM163.421 84.7517H214.944C214.94 86.2801 214.332 87.7448 213.251 88.8255C212.17 89.9062 210.706 90.5149 209.177 90.5184H169.188C167.659 90.5149 166.195 89.9062 165.114 88.8255C164.033 87.7448 163.424 86.2801 163.421 84.7517ZM203.478 61.631V73.9055H203.923C204.784 73.9958 205.656 73.904 206.48 73.6361C207.304 73.3681 208.062 72.93 208.706 72.3501C209.35 71.7701 209.865 71.0614 210.217 70.2698C210.569 69.4782 210.752 68.6213 210.752 67.7548C210.752 66.8883 210.569 66.0314 210.217 65.2398C209.865 64.4482 209.35 63.7394 208.706 63.1595C208.062 62.5796 207.304 62.1415 206.48 61.8735C205.656 61.6056 204.784 61.5138 203.923 61.6041L203.478 61.631Z" fill="#F6EC4A"/>
<path d="M39.7885 132.14H47.7648V125.848H39.6807L39.7885 132.14Z" fill="#FF2A31"/>
<path d="M5.69999 109.31H13.9728L14.9025 109.203V102.115L14.0267 101.981H5.68652L5.69999 109.31Z" fill="#FF2A31"/>
<path d="M101.66 109.31H109.973L110.862 109.203V102.115L109.986 101.981H101.673L101.66 109.31Z" fill="#FF2A31"/>
<path d="M85.7729 109.31H94.0862L94.9754 109.203V102.115L94.0862 101.981H85.7864L85.7729 109.31Z" fill="#FF2A31"/>
</svg>
